<svg width="57" height="75" viewBox="0 0 57 75" fill="none" xmlns="http://www.w3.org/2000/svg">
<g filter="url(#filter0_d)">
<path d="M22.1653 35.5095L38.9997 18.6744C39.4632 18.212 39.7182 17.5937 39.7182 16.9344C39.7182 16.2748 39.4632 15.6568 38.9997 15.1937L37.5246 13.7193C37.0618 13.2554 36.4431 13 35.7838 13C35.1246 13 34.5066 13.2554 34.0435 13.7193L13.9994 33.7629C13.5344 34.2276 13.2798 34.8484 13.2816 35.5084C13.2798 36.1713 13.5341 36.7915 13.9994 37.2565L34.0248 57.2807C34.488 57.7446 35.1059 58 35.7655 58C36.4248 58 37.0427 57.7446 37.5063 57.2807L38.981 55.8063C39.9407 54.8467 39.9407 53.2845 38.981 52.3252L22.1653 35.5095Z" fill="#242424"/>
</g>
<defs>
<filter id="filter0_d" x="-9" y="0" width="75" height="75" filterUnits="userSpaceOnUse" color-interpolation-filters="sRGB">
<feFlood flood-opacity="0" result="BackgroundImageFix"/>
<feColorMatrix in="SourceAlpha" type="matrix" values="0 0 0 0 0 0 0 0 0 0 0 0 0 0 0 0 0 0 127 0"/>
<feOffset dx="2" dy="2"/>
<feGaussianBlur stdDeviation="7.5"/>
<feColorMatrix type="matrix" values="0 0 0 0 0 0 0 0 0 0 0 0 0 0 0 0 0 0 0.15 0"/>
<feBlend mode="normal" in2="BackgroundImageFix" result="effect1_dropShadow"/>
<feBlend mode="normal" in="SourceGraphic" in2="effect1_dropShadow" result="shape"/>
</filter>
</defs>
</svg>
