<svg width="512" height="512" viewBox="0 0 512 512" fill="none" xmlns="http://www.w3.org/2000/svg">
<path d="M294.111 256.001L504.109 46.003C514.632 35.479 514.632 18.417 504.109 7.89398C493.585 -2.63002 476.522 -2.63002 465.999 7.89398L256 217.892L46.002 7.89398C35.478 -2.63002 18.416 -2.63002 7.893 7.89398C-2.63 18.418 -2.631 35.48 7.893 46.003L217.891 256.001L7.893 465.999C-2.631 476.523 -2.631 493.585 7.893 504.108C18.417 514.632 35.479 514.631 46.002 504.108L256 294.11L465.997 504.108C476.521 514.632 493.584 514.631 504.107 504.108C514.63 493.584 514.63 476.522 504.107 465.999L294.111 256.001Z" fill="#E3E3E3"/>
</svg>
