<svg width="88" height="88" viewBox="0 0 88 88" fill="none" xmlns="http://www.w3.org/2000/svg">
<g clip-path="url(#clip0)">
<path d="M44.4495 14.6187C43.911 14.146 43.0907 14.1996 42.6182 14.7388C42.1458 15.2776 42.1995 16.0975 42.7384 16.5701C48.8896 21.9637 52.4174 29.7451 52.4174 37.9192C52.4174 38.6361 52.9982 39.2169 53.715 39.2169C54.4319 39.2169 55.0127 38.6361 55.0127 37.9192C55.0129 28.9976 51.1628 20.505 44.4495 14.6187V14.6187Z" fill="#E3E3E3"/>
<path d="M36.6232 12.4729C37.6672 12.9904 38.6908 13.5796 39.6658 14.2241C39.8861 14.3698 40.1345 14.4393 40.3802 14.4393C40.8014 14.4393 41.2144 14.2346 41.464 13.8571C41.8592 13.2593 41.695 12.4542 41.0971 12.0589C40.0331 11.3557 38.9158 10.7124 37.7757 10.1475C37.1341 9.82928 36.355 10.0919 36.0368 10.7338C35.7185 11.3761 35.9809 12.1547 36.6232 12.4729Z" fill="#E3E3E3"/>
<path d="M15.3268 67.6006C15.882 67.6006 16.3959 67.2414 16.567 66.6827C16.777 65.9973 16.3915 65.2719 15.7064 65.0618C11.7983 63.8643 8.25892 61.8728 5.1869 59.1427C4.65087 58.6663 3.83091 58.715 3.35475 59.2506C2.87876 59.7865 2.92704 60.6066 3.46272 61.0828C6.81556 64.0623 10.679 66.2358 14.9459 67.5433C15.0728 67.5822 15.2008 67.6006 15.3268 67.6006V67.6006Z" fill="#E3E3E3"/>
<path d="M24.0339 68.8981C24.7508 68.8981 25.3316 68.3173 25.3316 67.6004C25.3316 66.8836 24.7508 66.3027 24.0339 66.3027C22.675 66.3027 21.3088 66.2058 19.9732 66.0146C19.2651 65.9143 18.6064 66.4059 18.5048 67.1154C18.4034 67.825 18.8962 68.4823 19.6056 68.5839C21.0624 68.7924 22.5525 68.8981 24.0339 68.8981Z" fill="#E3E3E3"/>
<path d="M38.3278 27.5732C37.9071 26.9928 37.0957 26.8638 36.5153 27.2842C35.935 27.705 35.8058 28.5163 36.2264 29.0966C38.0956 31.6748 39.0835 34.7258 39.0835 37.9193C39.0835 46.2176 32.3322 52.9688 24.034 52.9688C15.7358 52.9688 8.98439 46.2175 8.98439 37.9193C8.98439 29.6211 15.7358 22.8697 24.034 22.8697C27.2221 22.8697 30.2687 23.8545 32.8445 25.718C33.425 26.1381 34.2364 26.0078 34.6564 25.427C35.0766 24.8465 34.9464 24.0352 34.3655 23.6151C31.3445 21.4294 27.772 20.2742 24.034 20.2742C14.3045 20.2742 6.38904 28.1896 6.38904 37.9191C6.38904 47.6485 14.3045 55.564 24.034 55.564C33.7634 55.564 41.6789 47.6485 41.6789 37.9191C41.6789 34.175 40.52 30.5973 38.3278 27.5732V27.5732Z" fill="#D29C00"/>
<path d="M16.5759 37.9192C16.5759 42.0317 19.9217 45.3774 24.0339 45.3774C28.1462 45.3774 31.4919 42.0317 31.4919 37.9192C31.4919 33.8068 28.1463 30.4612 24.0339 30.4612C19.9215 30.4612 16.5759 33.8068 16.5759 37.9192ZM28.8966 37.9192C28.8966 40.6006 26.7153 42.7819 24.0339 42.7819C21.3526 42.7819 19.1713 40.6006 19.1713 37.9192C19.1713 35.2379 21.3526 33.0566 24.0339 33.0566C26.7151 33.0564 28.8966 35.2377 28.8966 37.9192Z" fill="#D29C00"/>
<path d="M69.4975 39.2374C69.8236 39.2374 70.1501 39.115 70.4024 38.8695C72.0741 37.2424 74.2776 36.3462 76.6066 36.3462H76.8856C77.6024 36.3462 78.1832 35.7653 78.1832 35.0485C78.1832 34.3316 77.6024 33.7508 76.8856 33.7508H76.6066C76.3786 33.7508 76.1519 33.7596 75.926 33.7728V27.2567C75.926 21.3146 80.7601 16.4805 86.702 16.4805C87.4189 16.4805 87.9997 15.8996 87.9997 15.1828C87.9997 14.466 87.4189 13.8851 86.702 13.8851C79.329 13.8851 73.3306 19.8837 73.3306 27.2567V34.2242C71.5673 34.7472 69.9447 35.693 68.5919 37.0097C68.0783 37.5096 68.0672 38.3311 68.5671 38.8446C68.8218 39.1062 69.1594 39.2374 69.4975 39.2374V39.2374Z" fill="#D29C00"/>
<path d="M85.7417 66.5477C85.6652 66.632 77.9731 74.98 68.2418 75.3865C64.2804 75.5512 57.6491 72.4876 49.0564 66.5259C43.7813 62.8661 39.259 59.1325 37.6094 57.7408C41.0738 55.3606 43.8863 52.0977 45.7183 48.2779C51.5442 48.3978 57.3686 49.7863 62.6145 52.3179L66.8488 54.3614C68.2264 55.0261 69.4976 55.8862 70.6271 56.9174C70.8759 57.1446 71.1894 57.2569 71.5019 57.2569C71.8538 57.2569 72.2045 57.1147 72.4604 56.8344C72.9437 56.3049 72.9065 55.4843 72.3774 55.001C71.0617 53.7997 69.5813 52.7981 67.9769 52.0238L67.709 51.8946V45.2439C67.709 44.4142 67.8274 43.5842 68.0604 42.7769C68.2593 42.0885 67.8623 41.3689 67.1741 41.1701C66.4852 40.9713 65.766 41.3682 65.5672 42.0565C65.2663 43.0982 65.1137 44.1705 65.1137 45.2439V50.6422L63.7427 49.9806C58.4623 47.4325 52.6309 45.9742 46.7687 45.7164C47.61 43.2702 48.0678 40.6474 48.0678 37.9193C48.0678 24.6669 37.2862 13.8853 24.034 13.8853C10.7818 13.8853 0 24.6669 0 37.9193C0 51.1717 10.7816 61.9533 24.034 61.9533C28.091 61.9533 31.9157 60.9413 35.2713 59.1588C36.5207 60.2419 57.1615 77.9877 67.9575 77.9877C68.0895 77.9877 68.221 77.9849 68.3501 77.9796C79.1533 77.5287 87.3205 68.6699 87.663 68.293C88.1448 67.7627 88.1055 66.9419 87.5749 66.4598C87.0444 65.9781 86.2239 66.0172 85.7417 66.5477V66.5477ZM2.59535 37.9193C2.59535 26.0978 12.2127 16.4805 24.034 16.4805C35.8551 16.4805 45.4724 26.0978 45.4724 37.9191C45.4724 49.7404 35.8551 59.3577 24.034 59.3577C12.2127 59.3579 2.59535 49.7406 2.59535 37.9193V37.9193Z" fill="#D29C00"/>
</g>
<defs>
<clipPath id="clip0">
<rect width="88" height="88" fill="white"/>
</clipPath>
</defs>
</svg>
