<svg width="88" height="88" viewBox="0 0 88 88" fill="none" xmlns="http://www.w3.org/2000/svg">
<path d="M57.744 13.233C58.6926 13.233 59.4627 12.4636 59.4627 11.515C59.4627 10.5663 58.6926 9.7962 57.744 9.7962C56.7953 9.7962 56.0259 10.5663 56.0259 11.515C56.0259 12.4636 56.7953 13.233 57.744 13.233V13.233Z" fill="#E3E3E3"/>
<path d="M87.1031 56.2743C85.1909 52.8307 80.8189 51.6115 77.3921 53.6095L59.3707 63.6743C58.8357 60.4134 55.9984 57.9165 52.5884 57.9165H46.3754C44.9272 57.9165 43.5045 57.1847 42.3706 55.8573C39.0029 51.9109 33.9299 50.2439 28.7998 51.3986C26.1129 52.0049 23.5939 53.494 21.7073 55.5928C20.7714 56.6341 19.5508 57.3606 18.2167 57.6996V56.1977C18.2167 55.2491 17.4473 54.479 16.498 54.479H1.71875C0.769409 54.479 0 55.2491 0 56.1977V83.6951C0 84.6437 0.769409 85.4138 1.71875 85.4138H16.4987C17.4473 85.4138 18.2167 84.6437 18.2167 83.6951V82.4127C18.2167 82.4127 54.2595 85.4138 54.3071 85.4138C54.6428 85.4138 54.9732 85.3151 55.2551 85.1285L68.2498 76.5374C69.0414 76.0137 69.2589 74.9476 68.7353 74.156C68.2122 73.3644 67.1461 73.1469 66.3538 73.6699L53.856 81.9333L18.2167 78.9638V61.209C20.533 60.8209 22.6748 59.6594 24.2639 57.8896C25.6785 56.3172 27.5577 55.2021 29.5558 54.7516C33.4176 53.8821 37.2311 55.1295 39.7568 58.089C41.5548 60.1938 43.9053 61.3533 46.3761 61.3533H52.5884C54.4837 61.3533 56.0259 62.8955 56.0259 64.7908C56.0259 66.6767 54.5045 68.2276 52.5884 68.2276H37.121C36.1723 68.2276 35.4029 68.9977 35.4029 69.9464C35.4029 70.8957 36.1723 71.6651 37.121 71.6651H52.5884C55.1591 71.6651 57.4768 70.2478 58.6611 68.0081C58.6611 68.0081 79.1048 56.5898 79.1149 56.5838C80.8645 55.5579 83.113 56.1682 84.0986 57.9433C85.0077 59.5788 84.5316 61.6084 82.9922 62.6692L77.8191 66.0893C77.0276 66.613 76.81 67.6791 77.333 68.4707C77.8574 69.2643 78.9242 69.4791 79.7144 68.9568C79.7144 68.9568 84.9157 65.5179 84.9231 65.5125C87.9443 63.446 88.8809 59.4734 87.1031 56.2743ZM14.7799 81.9763H3.43683V57.9165H14.7799V81.9763Z" fill="#D29C00"/>
<path d="M57.744 2.92188C43.53 2.92188 31.9653 14.4858 31.9653 28.7004C31.9653 42.915 43.53 54.479 57.744 54.479C71.9586 54.479 83.5232 42.915 83.5232 28.7004C83.5232 14.4858 71.9586 2.92188 57.744 2.92188V2.92188ZM57.744 51.0422C45.4246 51.0422 35.4028 41.0197 35.4028 28.7004C35.4028 16.3812 45.4246 6.3587 57.744 6.3587C70.0633 6.3587 80.0857 16.3812 80.0857 28.7004C80.0857 41.0197 70.0633 51.0422 57.744 51.0422V51.0422Z" fill="#D29C00"/>
<path d="M65.1574 11.3095C64.2853 10.9355 63.2742 11.3411 62.9009 12.2139C62.5276 13.086 62.9324 14.0964 63.8052 14.4697C69.5194 16.9149 73.2114 22.5008 73.2114 28.7004C73.2114 37.2291 66.2726 44.1679 57.744 44.1679C49.2153 44.1679 42.2772 37.2291 42.2772 28.7004C42.2772 22.5008 45.9692 16.9149 51.6834 14.4697C52.5562 14.0964 52.961 13.086 52.587 12.2132C52.2137 11.3404 51.2033 10.9362 50.3312 11.3095C43.3508 14.2965 38.8397 21.1232 38.8397 28.7004C38.8397 39.1244 47.3207 47.6047 57.744 47.6047C68.1679 47.6047 76.6489 39.1244 76.6489 28.7004C76.6489 21.1232 72.1378 14.2965 65.1574 11.3095V11.3095Z" fill="#D29C00"/>
<path d="M57.9159 30.2473C58.8639 30.2473 59.6347 31.0181 59.6347 31.9661C59.6347 32.9134 58.8639 33.6842 57.9159 33.6842C57.1821 33.6842 56.3892 33.2229 55.6849 32.3843C55.074 31.6579 53.9897 31.5639 53.2632 32.1749C52.5368 32.7858 52.4428 33.8695 53.0537 34.5959C53.9722 35.6889 55.0525 36.4509 56.1979 36.8343V38.8404C56.1979 39.7891 56.9673 40.5585 57.9159 40.5585C58.8653 40.5585 59.6347 39.7891 59.6347 38.8404V36.8262C61.6348 36.1166 63.0722 34.2065 63.0722 31.9661C63.0722 29.1227 60.7593 26.8098 57.9159 26.8098C56.9686 26.8098 56.1979 26.0391 56.1979 25.0917C56.1979 24.1437 56.9686 23.373 57.9159 23.373C58.5249 23.373 59.1674 23.6838 59.775 24.2713C60.4571 24.9313 61.5448 24.9132 62.2054 24.2317C62.8647 23.5496 62.8473 22.4612 62.1651 21.8013C61.293 20.9573 60.4202 20.48 59.6347 20.2195V18.2174C59.6347 17.2681 58.8653 16.4987 57.9159 16.4987C56.9673 16.4987 56.1979 17.2681 56.1979 18.2174V20.2316C54.1971 20.9412 52.7603 22.8513 52.7603 25.0917C52.7603 27.9344 55.0733 30.2473 57.9159 30.2473V30.2473Z" fill="#D29C00"/>
<path d="M74.7583 71.3214C74.7583 70.3727 73.9882 69.6027 73.0396 69.6027C72.0909 69.6027 71.3208 70.3727 71.3208 71.3214C71.3208 72.2701 72.0909 73.0402 73.0396 73.0402C73.9882 73.0402 74.7583 72.2701 74.7583 71.3214Z" fill="#E3E3E3"/>
</svg>
