<svg id="Capa_1" enable-background="new 0 0 511.978 511.978" height="512" viewBox="0 0 511.978 511.978" width="512" xmlns="http://www.w3.org/2000/svg"><g><g><path d="m265.75 203.28 13.324-25.737c12.005-23.217 34.647-39.08 60.568-42.434l47.822-6.188c11.17-1.445 19.945-9.876 21.834-20.981l2.474-14.541c.432-2.536 1.71-4.079 3.301-5.949 1.62 6.308 6.544 11.234 12.852 12.855 5.495 1.412 11.084 2.1 16.643 2.1 17.662 0 34.983-6.949 47.722-19.688 16.722-16.722 23.47-41.351 17.611-64.278-1.628-6.368-6.596-11.335-12.965-12.962-22.93-5.856-47.558.892-64.276 17.609-4.075 4.075-7.552 8.621-10.403 13.495-2.77-4.53-6.074-8.743-9.845-12.514-16.719-16.717-41.348-23.463-64.276-17.608-6.369 1.626-11.337 6.593-12.965 12.962-4.104 16.061-2.172 32.99 5.441 47.669 1.334 2.573 3.952 4.049 6.664 4.048 1.163 0 2.343-.271 3.447-.844 3.677-1.907 5.112-6.434 3.205-10.111-5.915-11.405-7.415-24.562-4.224-37.049.265-1.037 1.106-1.877 2.144-2.143 17.823-4.554 36.966.691 49.958 13.682 5.916 5.916 10.354 13.221 12.862 21.137-1.029 4.531-1.596 9.17-1.676 13.84-1.192.569-2.336 1.212-3.425 1.927-11.83-25.441-29.141-36.879-29.936-37.393-3.467-2.243-8.08-1.253-10.338 2.204-2.259 3.457-1.284 8.098 2.162 10.372.172.114 17.575 12.161 27.363 37.813-.501 1.206-.921 2.453-1.26 3.737-7.485-.401-14.833-2.386-21.458-5.858-3.669-1.923-8.202-.506-10.124 3.162-1.923 3.669-.507 8.202 3.162 10.124 7.983 4.183 16.77 6.704 25.757 7.437l-.383 2.248c-.776 4.563-4.382 8.027-8.972 8.621l-47.823 6.188c-30.799 3.985-57.703 22.834-71.968 50.42l-12.971 25.084c-1.207 2.334-2.578 4.595-4.069 6.741-32.935.738-64.365 14.89-86.774 39.119-14.951 1.765-28.79 8.429-39.598 19.237l-24.54 24.54c-11.607-2.774-22.347-1.583-31.139 3.494-14.418 8.324-22.014 25.744-21.417 49.063l-43.044 43.045c-2.929 2.929-2.929 7.678 0 10.606 1.464 1.464 3.384 2.197 5.303 2.197s3.839-.732 5.303-2.197l34.592-34.592c3.224 16.709 9.936 34.321 19.636 51.122 10.205 17.676 22.741 32.733 36.01 43.891l-14.908 14.908c-2.929 2.929-2.929 7.678 0 10.606 1.464 1.464 3.384 2.197 5.303 2.197s3.839-.732 5.303-2.197l16.497-16.497c5.115 3.27 10.266 5.933 15.368 7.908-.148.172-.305.333-.451.508-10.461 12.527-11.75 28.108-2.933 35.47 2.974 2.483 6.661 3.668 10.645 3.668 6.575 0 13.951-3.24 20.254-9.192-.098 3.866 2.784 7.223 6.698 7.64.27.028.538.042.804.042 3.786 0 7.039-2.857 7.449-6.706.3-2.812.438-5.493.457-8.049 6.147 4.365 13.833 8.083 23.353 10.005.501.101 1 .15 1.492.15 3.496 0 6.625-2.458 7.344-6.017.82-4.06-1.807-8.016-5.867-8.836-5.056-1.021-9.41-2.727-13.18-4.791 15.666-2.877 26.421-13.646 24.589-24.788-1.477-8.979-10.622-15.107-22.365-15.952 4.067-14.461 3.427-32.897-2.002-52.712l14.244-14.243c5.192-5.192 12.096-8.052 19.439-8.052h128.336v24.422c0 12.829 10.437 23.266 23.266 23.266s23.266-10.437 23.266-23.266v-24.422h5.355c7.688 0 14.917-2.994 20.354-8.431l71.483-71.483c10.044-10.043 10.044-26.386 0-36.43-19.521-19.521-51.286-19.521-70.808 0l-.371.371c-5.779-4.935-12.011-9.341-18.597-13.117-3.594-2.061-8.177-.817-10.237 2.777-2.06 3.593-.817 8.176 2.777 10.237 5.437 3.117 10.602 6.721 15.418 10.743l-15.374 15.374v-3.862c0-4.142-3.358-7.5-7.5-7.5s-7.5 3.358-7.5 7.5v118.244c0 4.558-3.708 8.266-8.266 8.266s-8.266-3.708-8.266-8.266v-106.243c0-4.142-3.358-7.5-7.5-7.5s-7.5 3.358-7.5 7.5v5.707h-9.311c-4.56-28.225-29.086-49.851-58.578-49.851h-96.646c18.872-15.185 42.553-23.665 67.045-23.665 15.332 0 30.128 3.176 43.978 9.44 14.838 6.711 30.495 10.1 46.56 10.027l.385-.001c7.306 0 14.629.749 21.769 2.226 4.054.841 8.024-1.769 8.864-5.825s-1.769-8.025-5.825-8.864c-8.093-1.674-16.395-2.526-24.675-2.535-3.138-7.678-4.606-15.722-4.322-23.949l.033-.963c.67-19.459 15.187-35.278 34.516-37.614l22.598-2.731c21.074-2.548 37.976-18.991 41.102-39.986.61-4.097-2.216-7.913-6.313-8.522-4.097-.618-7.913 2.216-8.522 6.313-2.135 14.336-13.676 25.564-28.066 27.304l-22.598 2.731c-26.717 3.229-46.781 25.094-47.708 51.989l-.033.963c-.273 7.913.728 15.686 2.969 23.214-8.393-1.367-16.606-3.85-24.552-7.443-11.442-5.176-23.445-8.494-35.83-9.937zm177.517-169.587c12.992-12.991 32.136-18.232 49.958-13.683 1.038.265 1.879 1.106 2.144 2.143 4.554 17.82-.689 36.962-13.684 49.957-10.169 10.17-24.094 15.59-38.208 15.287 11.668-7.717 28.313-21.106 39.877-40.438 2.126-3.555.968-8.16-2.586-10.287-3.555-2.126-8.161-.968-10.287 2.586-12.503 20.902-32.476 34.233-41.865 39.679-2.602-16.418 2.794-33.387 14.651-45.244zm-369.108 268.166c2.981-1.721 6.348-2.689 10.068-2.914l-22.642 22.642c2.041-9.299 6.31-16.112 12.574-19.728zm81.145 173.709c-.519 3.33-2.421 7.161-5.219 10.512-5.834 6.987-12.203 8.188-13.25 7.313s-1.002-7.355 4.833-14.342c2.798-3.351 6.229-5.906 9.413-7.011 1.156-.401 2.065-.532 2.713-.532.608 0 .987.115 1.125.23.282.238.751 1.487.385 3.83zm41.151-15.101c.221 1.347-4.047 6.223-13.03 7.701-4.305.708-8.574.401-11.706-.843-1.823-.724-2.701-1.553-2.988-2.027-.021-.035-.041-.069-.061-.104-.027-.056-.047-.108-.053-.148-.221-1.347 4.047-6.222 13.029-7.7 1.604-.264 3.1-.376 4.477-.376 6.333 0 10.149 2.391 10.332 3.497zm24.116-108.394c-11.351 0-22.021 4.42-30.046 12.446l-38.645 38.645c-2.929 2.929-2.929 7.678 0 10.606 1.464 1.465 3.384 2.197 5.303 2.197s3.839-.732 5.303-2.197l11.955-11.954c3.414 17.026 2.626 32.289-2.336 42.533-7.389 2.588-13.133 7.046-16.149 12.297-2.933-.336-6.109.02-9.357 1.085-6.512-.842-13.457-3.465-20.485-7.587l10.969-10.969c2.929-2.929 2.929-7.678 0-10.606-2.929-2.929-7.678-2.929-10.606 0l-12.795 12.795c-12.259-10.109-24.12-24.228-33.659-40.751-10.971-19.002-17.74-38.942-19.402-56.847l72.324-72.324c9.888-9.888 23.036-15.334 37.02-15.334h111.058c24.453 0 44.347 19.894 44.347 44.347 0 5.913-4.811 10.723-10.724 10.723h-110.578c-4.142 0-7.5 3.358-7.5 7.5s3.358 7.5 7.5 7.5h110.577c12.295 0 22.597-8.672 25.125-20.219h9.141v46.115h-128.34zm261.455-75.52-71.483 71.483c-2.604 2.604-6.065 4.037-9.747 4.037h-5.355v-53.75c.01-.01.021-.018.031-.028l36.959-36.959c13.674-13.673 35.921-13.673 49.595 0 4.195 4.196 4.195 11.022 0 15.217z"/><path d="m311.08 387.196h-.104c-.012 0-.024 0-.036 0-4.125 0-7.479 3.334-7.499 7.465-.02 4.142 3.323 7.516 7.465 7.535h.104.036c4.125 0 7.479-3.334 7.499-7.465.019-4.142-3.323-7.515-7.465-7.535z"/><path d="m327.538 407.926h-.103c-.012 0-.024 0-.037 0-4.125 0-7.479 3.334-7.499 7.464-.02 4.142 3.322 7.516 7.464 7.536h.103.037c4.125 0 7.479-3.334 7.499-7.464.02-4.142-3.322-7.516-7.464-7.536z"/><path d="m380.753 451.85h-.103c-.012 0-.024 0-.037 0-4.125 0-7.479 3.334-7.499 7.464-.02 4.142 3.322 7.516 7.464 7.536h.103.037c4.125 0 7.479-3.334 7.499-7.464.02-4.143-3.322-7.517-7.464-7.536z"/><path d="m414.505 381.56h-.103c-4.142 0-7.5 3.358-7.5 7.5s3.358 7.5 7.5 7.5h.103c4.142 0 7.5-3.358 7.5-7.5s-3.358-7.5-7.5-7.5z"/></g></g></svg>