<svg width="89" height="88" viewBox="0 0 89 88" fill="none" xmlns="http://www.w3.org/2000/svg">
<g clip-path="url(#clip0)">
<path d="M20.309 29.9656C19.6365 29.2953 18.5432 29.2953 17.8709 29.9656C17.1967 30.6376 17.1967 31.7256 17.8709 32.3959C18.5434 33.0679 19.6367 33.0679 20.309 32.3959C20.983 31.7256 20.983 30.6376 20.309 29.9656Z" fill="#E3E3E3"/>
<path d="M43.6609 76.9517C44.4212 75.9252 44.8321 74.6886 44.8321 73.3883C44.8321 70.0715 42.1248 67.3729 38.797 67.3729H9.48369C7.87089 67.3729 6.35534 67.9985 5.21605 69.1344C4.07624 70.2702 3.44857 71.7808 3.44857 73.3883C3.44857 74.7202 3.88587 75.9519 4.62373 76.9496C1.87801 78.3885 0 81.2589 0 84.5597V86.2785C0 87.2277 0.772173 87.9972 1.72437 87.9972H46.5563C47.5085 87.9972 48.2806 87.2277 48.2806 86.2785V84.5597C48.2806 81.2604 46.4045 78.3913 43.6609 76.9517ZM7.65448 71.5647C8.14265 71.078 8.79239 70.81 9.48369 70.81H38.797C40.2232 70.81 41.3833 71.9666 41.3833 73.388C41.3833 74.0772 41.1143 74.7247 40.626 75.2114C40.1378 75.6982 39.4881 75.9661 38.7968 75.9661H9.48369C8.05747 75.9661 6.89731 74.8096 6.89731 73.3882C6.89731 72.6991 7.16614 72.0515 7.65448 71.5647ZM3.44857 84.5597C3.44857 81.7167 5.76923 79.4036 8.62151 79.4036H9.48369H38.797H39.6591C42.5114 79.4036 44.8321 81.7167 44.8321 84.5597H3.44857Z" fill="#D29C00"/>
<path d="M86.6825 72.209C86.0969 71.3044 85.3982 70.5045 84.6055 69.8315L76.5484 62.827C76.4857 62.7328 76.4129 62.6435 76.3296 62.5605C76.1896 62.4211 76.0309 62.3123 75.8623 62.2308L70.9897 57.9949L48.4367 38.3855C49.3599 37.4235 49.8683 36.1656 49.8683 34.8279C49.8683 33.4498 49.3301 32.1547 48.3519 31.1798C47.9253 30.7551 47.4404 30.4211 46.9222 30.1766L49.0087 28.0969C49.5919 28.2514 50.1911 28.3305 50.7908 28.3305C52.5567 28.3303 54.3228 27.6603 55.6672 26.3204C56.9704 25.0215 57.6881 23.295 57.6881 21.4589C57.6881 19.6227 56.9704 17.8962 55.6673 16.5974L41.0364 2.01445C39.7333 0.715589 38.001 0.000244141 36.1583 0.000244141C34.3165 0.000244141 32.5847 0.715589 31.2818 2.01445C29.4809 3.80952 28.888 6.35826 29.4995 8.65142L8.68205 29.4009C8.1068 29.2484 7.50827 29.168 6.89681 29.168C5.0538 29.168 3.32236 29.8828 2.02029 31.1805C-0.669036 33.8611 -0.669036 38.2227 2.02029 40.9035L16.6511 55.4868C17.9959 56.827 19.7622 57.4972 21.5284 57.4972C23.2949 57.4972 25.0611 56.827 26.406 55.4868C28.2069 53.6915 28.7998 51.143 28.1883 48.8498L30.2705 46.7742C30.5207 47.295 30.8602 47.7756 31.282 48.1958C32.259 49.1697 33.558 49.7061 34.9402 49.7061C36.2809 49.7061 37.5425 49.2002 38.509 48.2811L62.5305 75.7904C62.5967 75.8935 62.674 75.9917 62.7643 76.0817C62.7952 76.1125 62.828 76.1405 62.8605 76.1683L70.0186 84.3658C70.1965 84.5751 70.3867 84.781 70.5842 84.9778C72.5501 86.9367 75.1469 87.9997 77.8731 87.9997C78.3537 87.9997 78.8387 87.9667 79.3245 87.8997C82.5713 87.4518 85.3774 85.5158 87.0228 82.5874C88.8252 79.3779 88.6911 75.3033 86.6825 72.209ZM33.7206 4.44511C34.3722 3.7956 35.2382 3.43775 36.1585 3.43775C37.08 3.43775 37.9465 3.7956 38.598 4.44511L53.2289 19.0282C53.8805 19.6777 54.2394 20.5411 54.2394 21.4591C54.2394 22.377 53.8805 23.2404 53.2287 23.8899C51.8846 25.23 49.6971 25.23 48.3529 23.8899L33.7215 9.30609C33.7211 9.30575 33.7209 9.30557 33.7206 9.30523C32.3761 7.96529 32.3761 5.78505 33.7206 4.44511ZM23.9674 53.0561C22.6227 54.3964 20.4343 54.3965 19.0897 53.0561L4.4589 38.473C3.11406 37.1325 3.11406 34.9518 4.4589 33.6111C5.10933 32.9627 5.97531 32.6055 6.89681 32.6055C7.81814 32.6055 8.6836 32.9625 9.33386 33.6105L23.9672 48.1961C25.3119 49.5359 25.3119 51.7163 23.9674 53.0561ZM31.2273 40.9595L26.4058 45.7655L11.7735 31.1808L31.2818 11.7357L45.914 26.3204L41.0836 31.1351C41.068 31.1499 41.0526 31.1643 41.0361 31.1807L31.2868 40.8983C31.2666 40.9181 31.2472 40.9387 31.2273 40.9595ZM37.3844 44.545C37.3809 44.5484 37.3776 44.5517 37.3742 44.5551L36.1599 45.7655C35.8342 46.09 35.4012 46.2687 34.9401 46.2687C34.4791 46.2687 34.046 46.09 33.7204 45.7653C33.3943 45.4405 33.2148 45.0084 33.2148 44.5486C33.2148 44.0986 33.3871 43.6753 33.6997 43.356L43.4943 33.5933C44.1656 32.9426 45.2509 32.9506 45.9143 33.6111C46.2402 33.936 46.4197 34.3681 46.4197 34.8279C46.4197 35.2873 46.2407 35.7182 45.9141 36.0428L44.7069 37.2461C44.6986 37.2542 44.6903 37.2625 44.6822 37.2707L37.3844 44.545ZM40.9552 45.847L45.9948 40.8237L67.3325 59.3751L59.5463 67.1361L40.9552 45.847ZM61.8157 69.7352L69.9374 61.6399L72.5424 63.9047L64.0852 72.3345L61.8157 69.7352ZM84.0139 80.9081C82.901 82.8887 81.0195 84.1958 78.8518 84.4948C76.6891 84.7932 74.5642 84.0832 73.0223 82.547C72.8896 82.415 72.7627 82.2773 72.6444 82.1377C72.6389 82.1312 72.6334 82.1247 72.6277 82.1183L66.3545 74.9336L75.1472 66.1693L82.3464 72.4285C82.3518 72.4333 82.3573 72.438 82.363 72.4428C82.9019 72.8994 83.38 73.4479 83.7858 74.0746C85.0897 76.0829 85.1811 78.8295 84.0139 80.9081Z" fill="#D29C00"/>
<path d="M32.5016 17.8125C31.8281 17.1413 30.7365 17.1413 30.063 17.8125L22.7468 25.1048C22.0735 25.776 22.0735 26.8643 22.7468 27.5353C23.0836 27.871 23.5249 28.0387 23.9661 28.0387C24.4074 28.0387 24.8487 27.8708 25.1854 27.5353L32.5016 20.243C33.175 19.5719 33.175 18.4838 32.5016 17.8125Z" fill="#E3E3E3"/>
</g>
<defs>
<clipPath id="clip0">
<rect width="88.2876" height="88" fill="white"/>
</clipPath>
</defs>
</svg>
