<svg width="88" height="88" viewBox="0 0 88 88" fill="none" xmlns="http://www.w3.org/2000/svg">
<path d="M59.4688 0C58.5197 0 57.75 0.769656 57.75 1.71875V9.625C57.75 10.5741 58.5197 11.3438 59.4688 11.3438C60.4178 11.3438 61.1875 10.5741 61.1875 9.625V1.71875C61.1875 0.769656 60.4178 0 59.4688 0Z" fill="#D29C00"/>
<path d="M19.9375 53.625C18.9888 53.625 18.2188 54.395 18.2188 55.3438C18.2188 56.2925 18.9888 57.0625 19.9375 57.0625C20.8862 57.0625 21.6562 56.2925 21.6562 55.3438C21.6562 54.395 20.8862 53.625 19.9375 53.625Z" fill="#E3E3E3"/>
<path d="M83.5312 50.1875C83.5312 46.3966 80.4471 43.3125 76.6562 43.3125H63.8254C65.8118 38.2245 66.6158 32.2357 66.4608 26.9046C66.4312 25.8873 66.3922 25.299 66.3395 24.9286C66.2506 21.2149 63.2012 18.2188 59.4688 18.2188C55.6779 18.2188 52.5938 21.3029 52.5938 25.0938V26.8125C52.5938 37.6829 38.6351 43.7905 28.1009 46.4095C27.3044 44.5887 25.4863 43.3125 23.375 43.3125H6.1875C5.23841 43.3125 4.46875 44.0822 4.46875 45.0312V86.2812C4.46875 87.2303 5.23841 88 6.1875 88H23.375C25.4722 88 27.2798 86.7407 28.0845 84.9391C28.9568 85.1629 29.7665 85.3743 30.514 85.5695C36.515 87.1368 39.8207 88 47.8603 88H66.3438C70.1346 88 73.2188 84.9159 73.2188 81.125C73.2188 79.7115 72.7896 78.3967 72.0552 77.3028C74.7103 76.3742 76.6562 73.8373 76.6562 70.8125C76.6562 69.4042 76.2376 68.085 75.5054 66.9862C78.1488 66.056 80.0938 63.525 80.0938 60.5C80.0938 59.0865 79.6646 57.7717 78.9302 56.6778C81.5853 55.7492 83.5312 53.2123 83.5312 50.1875ZM25.0938 82.8438C25.0938 83.7915 24.3227 84.5625 23.375 84.5625H7.90625V46.75H23.375C24.3227 46.75 25.0938 47.521 25.0938 48.4688V82.8438ZM76.6562 53.625C72.9697 53.625 72.0909 53.625 68.0625 53.625C67.1134 53.625 66.3438 54.3947 66.3438 55.3438C66.3438 56.2928 67.1134 57.0625 68.0625 57.0625H73.2188C75.1142 57.0625 76.6562 58.6046 76.6562 60.5C76.6562 62.3985 75.1173 63.9375 73.2188 63.9375H64.625C63.6759 63.9375 62.9062 64.7072 62.9062 65.6562C62.9062 66.6053 63.6759 67.375 64.625 67.375H69.7812C71.6542 67.375 73.2188 68.8712 73.2188 70.8125C73.2188 72.711 71.6798 74.25 69.7812 74.25C66.0947 74.25 65.2159 74.25 61.1875 74.25C60.2384 74.25 59.4688 75.0197 59.4688 75.9688C59.4688 76.9178 60.2384 77.6875 61.1875 77.6875H66.3438C68.2392 77.6875 69.7812 79.2296 69.7812 81.125C69.7812 83.0204 68.2392 84.5625 66.3438 84.5625H47.8603C40.2622 84.5625 37.2946 83.7875 31.3827 82.2436C30.5166 82.0174 29.5666 81.7694 28.5312 81.5054V49.848C40.9695 46.8853 56.0312 39.6535 56.0312 26.8125V25.0938C56.0312 23.1983 57.5733 21.6562 59.4688 21.6562C61.3608 21.6562 62.9026 23.1959 62.9062 25.0884V25.0938C62.9062 25.8407 63.8385 35.008 60.1002 43.3125H54.3125C53.3634 43.3125 52.5938 44.0822 52.5938 45.0312C52.5938 45.9803 53.3634 46.75 54.3125 46.75C55.5127 46.75 74.6972 46.75 76.6562 46.75C78.5517 46.75 80.0938 48.2921 80.0938 50.1875C80.0938 52.086 78.5548 53.625 76.6562 53.625Z" fill="#D29C00"/>
<path d="M19.9375 60.5C18.9884 60.5 18.2188 61.2697 18.2188 62.2188V75.9688C18.2188 76.9178 18.9884 77.6875 19.9375 77.6875C20.8866 77.6875 21.6562 76.9178 21.6562 75.9688V62.2188C21.6562 61.2697 20.8866 60.5 19.9375 60.5Z" fill="#D29C00"/>
<path d="M45.7188 21.6562H38.8438C37.8947 21.6562 37.125 22.4259 37.125 23.375C37.125 24.3241 37.8947 25.0938 38.8438 25.0938H45.7188C46.6678 25.0938 47.4375 24.3241 47.4375 23.375C47.4375 22.4259 46.6678 21.6562 45.7188 21.6562Z" fill="#D29C00"/>
<path d="M80.0938 21.6562H73.2188C72.2697 21.6562 71.5 22.4259 71.5 23.375C71.5 24.3241 72.2697 25.0938 73.2188 25.0938H80.0938C81.0428 25.0938 81.8125 24.3241 81.8125 23.375C81.8125 22.4259 81.0428 21.6562 80.0938 21.6562Z" fill="#D29C00"/>
<path d="M75.2677 7.57606C74.5963 6.90506 73.5084 6.90506 72.8369 7.57606L67.9764 12.4365C67.3052 13.1077 67.3052 14.196 67.9764 14.8673C68.6479 15.5385 69.7357 15.5383 70.4072 14.8673L75.2677 10.0069C75.9389 9.33572 75.9389 8.24741 75.2677 7.57606Z" fill="#E3E3E3"/>
<path d="M50.9612 12.4365L46.1007 7.57606C45.4294 6.90506 44.3414 6.90506 43.6699 7.57606C42.9987 8.24724 42.9987 9.33555 43.6699 10.0069L48.5303 14.8673C49.202 15.5385 50.2898 15.5383 50.9612 14.8673C51.6323 14.1962 51.6323 13.1079 50.9612 12.4365Z" fill="#E3E3E3"/>
</svg>
