<svg width="119" height="67" viewBox="0 0 119 67" fill="none" xmlns="http://www.w3.org/2000/svg">
<path d="M0.73233 1.92198C1.09848 2.79854 7.96387 17.8754 16.0193 35.2313L30.6654 66.9628L59.5 66.7875L88.3346 66.5245L101.791 37.598C109.114 21.6446 116.071 6.83072 117.078 4.46401L118.908 0.344176H59.5C2.19695 0.344176 0.0915609 0.431832 0.73233 1.92198ZM110.121 10.1617C108.748 13.2296 102.615 26.2904 96.5731 39.3511L85.5885 63.0182L59.8662 63.2812C39.9108 63.4565 33.8693 63.1936 33.2285 62.4047C32.4962 61.4404 12.1746 17.963 7.68925 7.79494L6.40772 4.72698H59.5H112.501L110.121 10.1617Z" fill="#E3E3E3"/>
<path d="M15.8362 10.1617C16.1108 10.7753 21.237 21.9076 27.2785 34.9683L38.1716 58.6355L59.1339 58.8984L80.0962 59.0738L90.8978 35.2313C96.8478 22.0829 101.974 10.7753 102.249 10.1617C102.615 9.37278 93.6439 9.10981 59.0424 9.10981C24.4408 9.10981 15.4701 9.37278 15.8362 10.1617ZM98.4954 12.7914C98.2208 13.9309 93.6439 24.2743 88.4262 35.8449L78.9062 56.8824L59.317 57.1453L39.7278 57.3206L29.7501 35.6696C24.3493 23.6607 19.6808 13.2296 19.4062 12.3531C19.0401 10.9506 21.3285 10.8629 59.0424 10.8629H99.0447L98.4954 12.7914Z" fill="#E3E3E3"/>
<path d="M26.2716 17.1741C27.2785 18.3137 31.5808 26.641 35.7 35.8449C39.8193 44.9611 43.4808 52.8501 43.847 53.2008C44.3046 53.5514 46.9593 48.6427 49.8885 42.2438C58.6762 22.8718 61.5139 16.9988 62.3377 16.9988C62.7954 16.9988 63.1616 16.5605 63.1616 16.1223C63.1616 15.5963 60.5985 15.2457 57.2116 15.2457C52.177 15.2457 51.2616 15.5087 51.2616 16.7359C51.2616 17.6124 49.7054 21.8199 47.8746 26.1151L44.3962 33.8288L40.8262 26.5533C38.9039 22.5212 37.3477 18.3137 37.3477 17.1741C37.3477 15.3334 36.89 15.2457 30.8485 15.2457H24.4408L26.2716 17.1741Z" fill="#E3E3E3"/>
<path d="M74.8784 16.1223C68.1961 18.0507 63.4361 22.4335 61.3308 28.6571C59.8661 32.9522 61.6969 35.7572 67.3723 38.0363C70.21 39.2635 71.4 40.2277 71.4 41.4549C71.4 45.6623 61.6969 46.1883 58.1269 42.2438L56.2046 40.14L53.3669 46.6266C51.6277 50.3958 50.9869 52.6748 51.8108 51.9736C52.9092 51.1847 53.6415 51.1847 55.5638 52.1489C59.0423 53.9897 67.4638 53.5514 71.9492 51.36C76.7092 49.0809 81.1031 44.2599 82.2931 40.14C83.7577 34.8807 82.2015 32.6893 74.8784 30.1472C72.1323 29.2707 71.4915 26.904 73.4138 25.0632C75.4277 23.1347 82.0185 23.836 84.9477 26.115L87.6023 28.3064L90.3485 22.1705C91.9046 18.8396 92.82 16.1223 92.4538 16.1223C91.9961 16.1223 91.4469 16.4729 91.0808 16.9112C90.8061 17.4371 89.3415 17.2618 87.4192 16.4729C84.0323 15.158 78.8146 14.9827 74.8784 16.1223Z" fill="#E3E3E3"/>
</svg>
