<?xml version="1.0" standalone="no"?>
<!DOCTYPE svg PUBLIC "-//W3C//DTD SVG 20010904//EN"
 "http://www.w3.org/TR/2001/REC-SVG-20010904/DTD/svg10.dtd">
<svg version="1.0" xmlns="http://www.w3.org/2000/svg"
 width="130.000000pt" height="87.000000pt" viewBox="0 0 130.000000 87.000000"
 preserveAspectRatio="xMidYMid meet">

<g transform="translate(0.000000,87.000000) scale(0.100000,-0.100000)"
fill="#000000" stroke="none">
<path d="M8 802 c4 -10 79 -182 167 -380 l160 -362 315 2 315 3 147 330 c80
182 156 351 167 378 l20 47 -649 0 c-626 0 -649 -1 -642 -18z m1195 -94 c-15
-35 -82 -184 -148 -333 l-120 -270 -281 -3 c-218 -2 -284 1 -291 10 -8 11
-230 507 -279 623 l-14 35 580 0 579 0 -26 -62z"/>
<path d="M173 708 c3 -7 59 -134 125 -283 l119 -270 229 -3 229 -2 118 272
c65 150 121 279 124 286 4 9 -94 12 -472 12 -378 0 -476 -3 -472 -12z m903
-30 c-3 -13 -53 -131 -110 -263 l-104 -240 -214 -3 -214 -2 -109 247 c-59 137
-110 256 -113 266 -4 16 21 17 433 17 l437 0 -6 -22z"/>
<path d="M287 628 c11 -13 58 -108 103 -213 45 -104 85 -194 89 -198 5 -4 34
52 66 125 96 221 127 288 136 288 5 0 9 5 9 10 0 6 -28 10 -65 10 -55 0 -65
-3 -65 -17 0 -10 -17 -58 -37 -107 l-38 -88 -39 83 c-21 46 -38 94 -38 107 0
21 -5 22 -71 22 l-70 0 20 -22z"/>
<path d="M818 640 c-73 -22 -125 -72 -148 -143 -16 -49 4 -81 66 -107 31 -14
44 -25 44 -39 0 -48 -106 -54 -145 -9 l-21 24 -31 -74 c-19 -43 -26 -69 -17
-61 12 9 20 9 41 -2 38 -21 130 -16 179 9 52 26 100 81 113 128 16 60 -1 85
-81 114 -30 10 -37 37 -16 58 22 22 94 14 126 -12 l29 -25 30 70 c17 38 27 69
23 69 -5 0 -11 -4 -15 -9 -3 -6 -19 -4 -40 5 -37 15 -94 17 -137 4z"/>
</g>
</svg>
