<svg width="384" height="584" viewBox="0 0 384 584" fill="none" xmlns="http://www.w3.org/2000/svg">
<mask id="path-1-inside-1" fill="white">
<path d="M357.572 2.36359C352.522 3.88007 352.017 4.55408 352.017 10.2831C352.017 21.9095 351.007 22.9206 336.362 28.6495C328.787 31.6826 317.172 35.2211 310.775 36.5691C295.457 39.7706 292.427 40.9501 281.317 48.5325C268.86 56.9576 236.035 73.3021 222.4 77.683C194.625 86.782 185.872 89.6465 180.822 90.6576C177.792 91.3315 173.92 93.5221 172.068 95.881C168.702 100.262 160.958 101.442 159.612 97.7346C159.275 96.7235 160.285 93.8591 161.968 91.6685C166.345 86.2766 166.008 81.39 160.958 73.976C158.602 70.6061 156.75 67.4045 156.75 67.0676C156.75 66.7305 151.868 61.5071 145.808 55.441L135.035 44.3201H124.43C113.657 44.3201 99.5166 49.0381 99.5166 52.7451C99.5166 53.5876 98.5066 54.4301 97.3283 54.4301C96.1499 54.4301 92.6149 57.9686 89.5849 62.3495C84.3666 69.595 84.0299 70.9431 84.8716 79.368C86.0499 89.9836 89.9216 94.8701 107.597 107.845C113.32 112.057 118.033 116.607 118.033 117.786C118.033 118.966 114.667 121.999 110.795 124.358C99.5166 130.761 83.3566 130.255 57.7699 122.504C46.9966 119.303 37.4016 115.933 36.5599 115.09C33.8666 112.394 38.0749 85.4341 42.6199 76.8405C46.1549 69.7635 48.3433 68.0786 60.7999 61.6755C68.7116 57.8 76.4549 54.0931 78.1383 53.5876C79.8216 53.082 80.6633 51.9026 79.9899 50.8915C79.3166 49.5436 75.6133 49.2065 69.0483 50.0491C63.4933 50.5546 59.1166 50.7231 59.1166 50.2176C59.1166 49.8806 62.1466 43.3091 65.8499 35.7266C73.0883 21.0671 74.0983 15.675 70.0583 15.675C68.5433 15.675 67.5333 14.1586 67.5333 11.4626C67.5333 9.10358 67.0283 7.25006 66.3549 7.25006C63.1566 7.41858 61.1366 10.4515 58.4433 18.5396C54.5716 30.5031 51.5416 30.1661 53.0566 18.3711C53.7299 12.3051 53.3933 8.76654 52.2149 7.92407C49.6899 6.40759 47.6699 9.94604 46.4916 18.2026C44.1349 32.8621 41.7783 34.884 38.9166 24.2686C38.0749 20.73 35.8866 16.6861 34.5399 15.5066C32.0149 13.316 31.8466 14.1586 32.8566 24.1C34.3716 38.7596 31.5099 55.9465 25.4499 67.7416C16.3599 85.4341 5.24995 115.259 5.24995 121.83C5.24995 126.717 11.3099 133.288 19.7266 137.501C30.1633 142.724 67.3649 157.047 77.4649 159.743C90.7633 163.113 96.1499 165.64 96.1499 168.336C96.1499 169.684 97.8333 171.032 100.022 171.706C104.062 172.717 121.737 195.465 124.767 203.553C125.777 206.417 128.47 210.967 130.827 214C133.015 216.864 134.867 220.234 134.867 221.245C134.867 222.256 136.382 226.132 138.402 230.007C141.937 236.916 141.937 241.802 138.907 253.934C138.065 257.304 138.738 260.506 140.758 264.55C143.788 270.11 143.788 270.616 140.085 286.623C138.065 295.554 134.867 306.675 132.847 311.393C130.995 315.942 126.955 328.074 124.093 338.353C116.855 362.954 106.418 389.745 103.388 390.925C102.21 391.43 99.5166 390.419 97.6649 388.734C95.3083 386.544 90.2583 385.364 80.9999 384.522C63.4933 383.005 58.4433 380.478 57.7699 372.895C57.0966 365.144 53.5616 362.785 43.2933 362.785C35.0449 362.785 34.2033 363.291 25.4499 372.053C20.3999 377.276 12.4883 384.69 8.11162 388.903C1.54662 394.8 0.0316169 397.159 0.536617 401.035C1.04162 405.753 1.04162 405.753 16.1916 406.764C25.1133 407.438 32.8566 407.101 35.0449 406.09C37.7383 404.91 39.4216 404.91 41.1049 406.258C42.2833 407.269 46.4916 408.617 50.3633 409.291C58.4433 410.471 65.0083 414.852 81.3366 429.848C93.1199 440.464 100.022 443.665 112.142 443.665C120.895 443.665 125.608 440.295 130.658 430.017C136.55 418.559 174.93 361.1 181.832 353.686C183.515 351.833 186.208 347.283 187.723 343.745C190.585 336.668 193.783 335.488 193.783 341.554C193.783 343.745 195.298 350.316 197.15 356.214C200.348 366.829 204.725 391.599 206.745 409.965C207.587 418.053 206.913 420.749 203.042 428.5C200.517 433.555 196.645 440.295 194.457 443.16C192.1 446.193 188.397 454.449 186.04 461.695C178.633 484.274 165.167 502.64 160.958 495.9C160.453 494.889 157.76 494.215 155.067 494.215C150.858 494.215 149.512 495.395 146.482 501.292C141.768 510.56 141.095 524.04 145.472 526.398C148.502 528.252 149.512 537.182 146.65 538.867C145.808 539.373 144.967 545.439 144.967 552.179C144.967 562.457 145.808 566.164 149.68 573.578C153.552 581.161 155.235 582.677 159.443 583.183C166.682 583.857 168.87 580.318 169.88 567.007C170.217 560.267 172.068 552.347 174.257 547.966C177.287 541.732 178.802 540.384 183.683 539.541C187.05 539.036 190.585 538.025 191.763 537.351C194.793 535.497 194.12 530.779 190.417 527.41C187.05 524.714 187.05 524.376 189.912 519.827C191.427 517.299 194.12 513.761 195.635 511.908C197.318 510.054 205.23 497.417 213.142 484.105C221.222 470.625 230.143 456.977 233.342 453.775C240.748 445.856 251.017 425.973 251.017 419.233C251.017 416.2 252.532 402.888 254.215 389.577C256.908 370.536 257.245 361.943 256.067 349.305C254.552 330.77 248.828 299.429 244.283 283.59C242.095 275.839 241.422 269.436 242.095 261.685C244.115 234.557 243.105 226.132 235.025 205.238C230.817 194.454 227.45 184.344 227.45 182.827C227.45 181.142 225.43 173.56 223.073 165.64C219.707 154.351 218.697 148.116 218.865 135.647C219.033 127.054 220.043 118.123 221.053 115.764C222.4 113.068 226.945 109.53 233.173 106.328C238.728 103.464 251.185 96.7235 260.612 91.1631C270.207 85.7711 280.812 80.2106 284.178 79.0311C287.713 77.8516 299.16 70.7745 309.597 63.5291C337.035 44.3201 351.175 36.4006 363.968 33.3676C370.533 31.6826 377.267 28.8181 379.792 26.459C385.515 21.0671 385.347 18.5396 378.95 19.8876L374.068 20.8986L375.078 12.6421C375.92 4.55408 375.92 4.38556 370.533 2.36359C364.305 0.341553 364.81 0.341553 357.572 2.36359Z"/>
</mask>
<path d="M357.572 2.36359C352.522 3.88007 352.017 4.55408 352.017 10.2831C352.017 21.9095 351.007 22.9206 336.362 28.6495C328.787 31.6826 317.172 35.2211 310.775 36.5691C295.457 39.7706 292.427 40.9501 281.317 48.5325C268.86 56.9576 236.035 73.3021 222.4 77.683C194.625 86.782 185.872 89.6465 180.822 90.6576C177.792 91.3315 173.92 93.5221 172.068 95.881C168.702 100.262 160.958 101.442 159.612 97.7346C159.275 96.7235 160.285 93.8591 161.968 91.6685C166.345 86.2766 166.008 81.39 160.958 73.976C158.602 70.6061 156.75 67.4045 156.75 67.0676C156.75 66.7305 151.868 61.5071 145.808 55.441L135.035 44.3201H124.43C113.657 44.3201 99.5166 49.0381 99.5166 52.7451C99.5166 53.5876 98.5066 54.4301 97.3283 54.4301C96.1499 54.4301 92.6149 57.9686 89.5849 62.3495C84.3666 69.595 84.0299 70.9431 84.8716 79.368C86.0499 89.9836 89.9216 94.8701 107.597 107.845C113.32 112.057 118.033 116.607 118.033 117.786C118.033 118.966 114.667 121.999 110.795 124.358C99.5166 130.761 83.3566 130.255 57.7699 122.504C46.9966 119.303 37.4016 115.933 36.5599 115.09C33.8666 112.394 38.0749 85.4341 42.6199 76.8405C46.1549 69.7635 48.3433 68.0786 60.7999 61.6755C68.7116 57.8 76.4549 54.0931 78.1383 53.5876C79.8216 53.082 80.6633 51.9026 79.9899 50.8915C79.3166 49.5436 75.6133 49.2065 69.0483 50.0491C63.4933 50.5546 59.1166 50.7231 59.1166 50.2176C59.1166 49.8806 62.1466 43.3091 65.8499 35.7266C73.0883 21.0671 74.0983 15.675 70.0583 15.675C68.5433 15.675 67.5333 14.1586 67.5333 11.4626C67.5333 9.10358 67.0283 7.25006 66.3549 7.25006C63.1566 7.41858 61.1366 10.4515 58.4433 18.5396C54.5716 30.5031 51.5416 30.1661 53.0566 18.3711C53.7299 12.3051 53.3933 8.76654 52.2149 7.92407C49.6899 6.40759 47.6699 9.94604 46.4916 18.2026C44.1349 32.8621 41.7783 34.884 38.9166 24.2686C38.0749 20.73 35.8866 16.6861 34.5399 15.5066C32.0149 13.316 31.8466 14.1586 32.8566 24.1C34.3716 38.7596 31.5099 55.9465 25.4499 67.7416C16.3599 85.4341 5.24995 115.259 5.24995 121.83C5.24995 126.717 11.3099 133.288 19.7266 137.501C30.1633 142.724 67.3649 157.047 77.4649 159.743C90.7633 163.113 96.1499 165.64 96.1499 168.336C96.1499 169.684 97.8333 171.032 100.022 171.706C104.062 172.717 121.737 195.465 124.767 203.553C125.777 206.417 128.47 210.967 130.827 214C133.015 216.864 134.867 220.234 134.867 221.245C134.867 222.256 136.382 226.132 138.402 230.007C141.937 236.916 141.937 241.802 138.907 253.934C138.065 257.304 138.738 260.506 140.758 264.55C143.788 270.11 143.788 270.616 140.085 286.623C138.065 295.554 134.867 306.675 132.847 311.393C130.995 315.942 126.955 328.074 124.093 338.353C116.855 362.954 106.418 389.745 103.388 390.925C102.21 391.43 99.5166 390.419 97.6649 388.734C95.3083 386.544 90.2583 385.364 80.9999 384.522C63.4933 383.005 58.4433 380.478 57.7699 372.895C57.0966 365.144 53.5616 362.785 43.2933 362.785C35.0449 362.785 34.2033 363.291 25.4499 372.053C20.3999 377.276 12.4883 384.69 8.11162 388.903C1.54662 394.8 0.0316169 397.159 0.536617 401.035C1.04162 405.753 1.04162 405.753 16.1916 406.764C25.1133 407.438 32.8566 407.101 35.0449 406.09C37.7383 404.91 39.4216 404.91 41.1049 406.258C42.2833 407.269 46.4916 408.617 50.3633 409.291C58.4433 410.471 65.0083 414.852 81.3366 429.848C93.1199 440.464 100.022 443.665 112.142 443.665C120.895 443.665 125.608 440.295 130.658 430.017C136.55 418.559 174.93 361.1 181.832 353.686C183.515 351.833 186.208 347.283 187.723 343.745C190.585 336.668 193.783 335.488 193.783 341.554C193.783 343.745 195.298 350.316 197.15 356.214C200.348 366.829 204.725 391.599 206.745 409.965C207.587 418.053 206.913 420.749 203.042 428.5C200.517 433.555 196.645 440.295 194.457 443.16C192.1 446.193 188.397 454.449 186.04 461.695C178.633 484.274 165.167 502.64 160.958 495.9C160.453 494.889 157.76 494.215 155.067 494.215C150.858 494.215 149.512 495.395 146.482 501.292C141.768 510.56 141.095 524.04 145.472 526.398C148.502 528.252 149.512 537.182 146.65 538.867C145.808 539.373 144.967 545.439 144.967 552.179C144.967 562.457 145.808 566.164 149.68 573.578C153.552 581.161 155.235 582.677 159.443 583.183C166.682 583.857 168.87 580.318 169.88 567.007C170.217 560.267 172.068 552.347 174.257 547.966C177.287 541.732 178.802 540.384 183.683 539.541C187.05 539.036 190.585 538.025 191.763 537.351C194.793 535.497 194.12 530.779 190.417 527.41C187.05 524.714 187.05 524.376 189.912 519.827C191.427 517.299 194.12 513.761 195.635 511.908C197.318 510.054 205.23 497.417 213.142 484.105C221.222 470.625 230.143 456.977 233.342 453.775C240.748 445.856 251.017 425.973 251.017 419.233C251.017 416.2 252.532 402.888 254.215 389.577C256.908 370.536 257.245 361.943 256.067 349.305C254.552 330.77 248.828 299.429 244.283 283.59C242.095 275.839 241.422 269.436 242.095 261.685C244.115 234.557 243.105 226.132 235.025 205.238C230.817 194.454 227.45 184.344 227.45 182.827C227.45 181.142 225.43 173.56 223.073 165.64C219.707 154.351 218.697 148.116 218.865 135.647C219.033 127.054 220.043 118.123 221.053 115.764C222.4 113.068 226.945 109.53 233.173 106.328C238.728 103.464 251.185 96.7235 260.612 91.1631C270.207 85.7711 280.812 80.2106 284.178 79.0311C287.713 77.8516 299.16 70.7745 309.597 63.5291C337.035 44.3201 351.175 36.4006 363.968 33.3676C370.533 31.6826 377.267 28.8181 379.792 26.459C385.515 21.0671 385.347 18.5396 378.95 19.8876L374.068 20.8986L375.078 12.6421C375.92 4.55408 375.92 4.38556 370.533 2.36359C364.305 0.341553 364.81 0.341553 357.572 2.36359Z" stroke="#D29C00" stroke-width="6" mask="url(#path-1-inside-1)"/>
</svg>
