<svg width="235" height="357" viewBox="0 0 235 357" fill="none" xmlns="http://www.w3.org/2000/svg">
<mask id="path-1-inside-1" fill="white">
<path d="M218.518 0.926849C215.428 1.85385 215.119 2.26584 215.119 5.76785C215.119 12.8748 214.501 13.4929 205.54 16.9948C200.905 18.8488 193.798 21.0118 189.884 21.8358C180.511 23.7928 178.657 24.5139 171.859 29.1488C164.237 34.2988 144.152 44.2899 135.809 46.9678C118.814 52.5298 113.458 54.2809 110.368 54.8988C108.514 55.3109 106.145 56.6498 105.012 58.0918C102.952 60.7698 98.2137 61.4908 97.3897 59.2249C97.1837 58.6068 97.8017 56.8558 98.8317 55.5168C101.51 52.2208 101.304 49.2338 98.2137 44.7018C96.7717 42.6418 95.6387 40.6848 95.6387 40.4789C95.6387 40.2728 92.6517 37.0798 88.9437 33.3719L82.3517 26.5739H75.8627C69.2707 26.5739 60.6187 29.4579 60.6187 31.7238C60.6187 32.2388 60.0007 32.7538 59.2797 32.7538C58.5587 32.7538 56.3957 34.9168 54.5417 37.5948C51.3487 42.0238 51.1427 42.8478 51.6577 47.9978C52.3787 54.4868 54.7477 57.4738 65.5627 65.4048C69.0647 67.9798 71.9487 70.7608 71.9487 71.4818C71.9487 72.2029 69.8887 74.0568 67.5197 75.4988C60.6187 79.4128 50.7307 79.1039 35.0747 74.3658C28.4827 72.4088 22.6117 70.3488 22.0967 69.8338C20.4487 68.1859 23.0237 51.7058 25.8047 46.4529C27.9677 42.1268 29.3067 41.0968 36.9287 37.1828C41.7697 34.8138 46.5077 32.5479 47.5377 32.2388C48.5677 31.9298 49.0827 31.2088 48.6707 30.5909C48.2587 29.7668 45.9927 29.5609 41.9757 30.0758C38.5767 30.3849 35.8987 30.4879 35.8987 30.1788C35.8987 29.9728 37.7527 25.9558 40.0187 21.3208C44.4477 12.3598 45.0657 9.06384 42.5937 9.06384C41.6667 9.06384 41.0487 8.13684 41.0487 6.48886C41.0487 5.04684 40.7397 3.91385 40.3277 3.91385C38.3707 4.01685 37.1347 5.87085 35.4867 10.8148C33.1177 18.1278 31.2637 17.9218 32.1907 10.7119C32.6027 7.00385 32.3967 4.84085 31.6757 4.32584C30.1307 3.39883 28.8947 5.56186 28.1737 10.6089C26.7317 19.5699 25.2897 20.8058 23.5387 14.3168C23.0237 12.1538 21.6847 9.68185 20.8607 8.96085C19.3157 7.62186 19.2127 8.13684 19.8307 14.2138C20.7577 23.1748 19.0067 33.6808 15.2987 40.8908C9.73675 51.7058 2.93875 69.9368 2.93875 73.9538C2.93875 76.9408 6.64675 80.9578 11.7967 83.5328C18.1827 86.7258 40.9457 95.4808 47.1257 97.1288C55.2627 99.1888 58.5587 100.734 58.5587 102.382C58.5587 103.206 59.5887 104.03 60.9277 104.442C63.3997 105.06 74.2147 118.965 76.0687 123.909C76.6867 125.66 78.3347 128.441 79.7767 130.295C81.1157 132.046 82.2487 134.106 82.2487 134.724C82.2487 135.342 83.1757 137.711 84.4117 140.08C86.5747 144.303 86.5747 147.29 84.7207 154.706C84.2057 156.766 84.6177 158.723 85.8537 161.195C87.7077 164.594 87.7077 164.903 85.4417 174.688C84.2057 180.147 82.2487 186.945 81.0127 189.829C79.8797 192.61 77.4077 200.026 75.6567 206.309C71.2277 221.347 64.8417 237.724 62.9877 238.445C62.2667 238.754 60.6187 238.136 59.4857 237.106C58.0437 235.767 54.9537 235.046 49.2887 234.531C38.5767 233.604 35.4867 232.059 35.0747 227.424C34.6627 222.686 32.4997 221.244 26.2167 221.244C21.1697 221.244 20.6547 221.553 15.2987 226.909C12.2087 230.102 7.36775 234.634 4.68975 237.209C0.672747 240.814 -0.254253 242.256 0.054747 244.625C0.363747 247.509 0.363747 247.509 9.63375 248.127C15.0927 248.539 19.8307 248.333 21.1697 247.715C22.8177 246.994 23.8477 246.994 24.8777 247.818C25.5987 248.436 28.1737 249.26 30.5427 249.672C35.4867 250.393 39.5037 253.071 49.4947 262.238C56.7047 268.727 60.9277 270.684 68.3437 270.684C73.6997 270.684 76.5837 268.624 79.6737 262.341C83.2787 255.337 106.763 220.214 110.986 215.682C112.016 214.549 113.664 211.768 114.591 209.605C116.342 205.279 118.299 204.558 118.299 208.266C118.299 209.605 119.226 213.622 120.359 217.227C122.316 223.716 124.994 238.857 126.23 250.084C126.745 255.028 126.333 256.676 123.964 261.414C122.419 264.504 120.05 268.624 118.711 270.375C117.269 272.229 115.003 277.276 113.561 281.705C109.029 295.507 100.789 306.734 98.2137 302.614C97.9047 301.996 96.2567 301.584 94.6087 301.584C92.0337 301.584 91.2097 302.305 89.3557 305.91C86.4717 311.575 86.0597 319.815 88.7377 321.257C90.5917 322.39 91.2097 327.849 89.4587 328.879C88.9437 329.188 88.4287 332.896 88.4287 337.016C88.4287 343.299 88.9437 345.565 91.3127 350.097C93.6817 354.732 94.7117 355.659 97.2867 355.968C101.716 356.38 103.055 354.217 103.673 346.08C103.879 341.96 105.012 337.119 106.351 334.441C108.205 330.63 109.132 329.806 112.119 329.291C114.179 328.982 116.342 328.364 117.063 327.952C118.917 326.819 118.505 323.935 116.239 321.875C114.179 320.227 114.179 320.021 115.93 317.24C116.857 315.695 118.505 313.532 119.432 312.399C120.462 311.266 125.303 303.541 130.144 295.404C135.088 287.164 140.547 278.821 142.504 276.864C147.036 272.023 153.319 259.869 153.319 255.749C153.319 253.895 154.246 245.758 155.276 237.621C156.924 225.982 157.13 220.729 156.409 213.004C155.482 201.674 151.98 182.516 149.199 172.834C147.86 168.096 147.448 164.182 147.86 159.444C149.096 142.861 148.478 137.711 143.534 124.939C140.959 118.347 138.899 112.167 138.899 111.24C138.899 110.21 137.663 105.575 136.221 100.734C134.161 93.8328 133.543 90.0218 133.646 82.3998C133.749 77.1469 134.367 71.6878 134.985 70.2458C135.809 68.5978 138.59 66.4348 142.401 64.4778C145.8 62.7268 153.422 58.6068 159.19 55.2078C165.061 51.9118 171.55 48.5128 173.61 47.7918C175.773 47.0708 182.777 42.7448 189.163 38.3159C205.952 26.5739 214.604 21.7328 222.432 19.8788C226.449 18.8488 230.569 17.0978 232.114 15.6559C235.616 12.3598 235.513 10.8148 231.599 11.6389L228.612 12.2568L229.23 7.20984C229.745 2.26584 229.745 2.16284 226.449 0.926849C222.638 -0.309143 222.947 -0.309143 218.518 0.926849Z"/>
</mask>
<path d="M218.518 0.926849C215.428 1.85385 215.119 2.26584 215.119 5.76785C215.119 12.8748 214.501 13.4929 205.54 16.9948C200.905 18.8488 193.798 21.0118 189.884 21.8358C180.511 23.7928 178.657 24.5139 171.859 29.1488C164.237 34.2988 144.152 44.2899 135.809 46.9678C118.814 52.5298 113.458 54.2809 110.368 54.8988C108.514 55.3109 106.145 56.6498 105.012 58.0918C102.952 60.7698 98.2137 61.4908 97.3897 59.2249C97.1837 58.6068 97.8017 56.8558 98.8317 55.5168C101.51 52.2208 101.304 49.2338 98.2137 44.7018C96.7717 42.6418 95.6387 40.6848 95.6387 40.4789C95.6387 40.2728 92.6517 37.0798 88.9437 33.3719L82.3517 26.5739H75.8627C69.2707 26.5739 60.6187 29.4579 60.6187 31.7238C60.6187 32.2388 60.0007 32.7538 59.2797 32.7538C58.5587 32.7538 56.3957 34.9168 54.5417 37.5948C51.3487 42.0238 51.1427 42.8478 51.6577 47.9978C52.3787 54.4868 54.7477 57.4738 65.5627 65.4048C69.0647 67.9798 71.9487 70.7608 71.9487 71.4818C71.9487 72.2029 69.8887 74.0568 67.5197 75.4988C60.6187 79.4128 50.7307 79.1039 35.0747 74.3658C28.4827 72.4088 22.6117 70.3488 22.0967 69.8338C20.4487 68.1859 23.0237 51.7058 25.8047 46.4529C27.9677 42.1268 29.3067 41.0968 36.9287 37.1828C41.7697 34.8138 46.5077 32.5479 47.5377 32.2388C48.5677 31.9298 49.0827 31.2088 48.6707 30.5909C48.2587 29.7668 45.9927 29.5609 41.9757 30.0758C38.5767 30.3849 35.8987 30.4879 35.8987 30.1788C35.8987 29.9728 37.7527 25.9558 40.0187 21.3208C44.4477 12.3598 45.0657 9.06384 42.5937 9.06384C41.6667 9.06384 41.0487 8.13684 41.0487 6.48886C41.0487 5.04684 40.7397 3.91385 40.3277 3.91385C38.3707 4.01685 37.1347 5.87085 35.4867 10.8148C33.1177 18.1278 31.2637 17.9218 32.1907 10.7119C32.6027 7.00385 32.3967 4.84085 31.6757 4.32584C30.1307 3.39883 28.8947 5.56186 28.1737 10.6089C26.7317 19.5699 25.2897 20.8058 23.5387 14.3168C23.0237 12.1538 21.6847 9.68185 20.8607 8.96085C19.3157 7.62186 19.2127 8.13684 19.8307 14.2138C20.7577 23.1748 19.0067 33.6808 15.2987 40.8908C9.73675 51.7058 2.93875 69.9368 2.93875 73.9538C2.93875 76.9408 6.64675 80.9578 11.7967 83.5328C18.1827 86.7258 40.9457 95.4808 47.1257 97.1288C55.2627 99.1888 58.5587 100.734 58.5587 102.382C58.5587 103.206 59.5887 104.03 60.9277 104.442C63.3997 105.06 74.2147 118.965 76.0687 123.909C76.6867 125.66 78.3347 128.441 79.7767 130.295C81.1157 132.046 82.2487 134.106 82.2487 134.724C82.2487 135.342 83.1757 137.711 84.4117 140.08C86.5747 144.303 86.5747 147.29 84.7207 154.706C84.2057 156.766 84.6177 158.723 85.8537 161.195C87.7077 164.594 87.7077 164.903 85.4417 174.688C84.2057 180.147 82.2487 186.945 81.0127 189.829C79.8797 192.61 77.4077 200.026 75.6567 206.309C71.2277 221.347 64.8417 237.724 62.9877 238.445C62.2667 238.754 60.6187 238.136 59.4857 237.106C58.0437 235.767 54.9537 235.046 49.2887 234.531C38.5767 233.604 35.4867 232.059 35.0747 227.424C34.6627 222.686 32.4997 221.244 26.2167 221.244C21.1697 221.244 20.6547 221.553 15.2987 226.909C12.2087 230.102 7.36775 234.634 4.68975 237.209C0.672747 240.814 -0.254253 242.256 0.054747 244.625C0.363747 247.509 0.363747 247.509 9.63375 248.127C15.0927 248.539 19.8307 248.333 21.1697 247.715C22.8177 246.994 23.8477 246.994 24.8777 247.818C25.5987 248.436 28.1737 249.26 30.5427 249.672C35.4867 250.393 39.5037 253.071 49.4947 262.238C56.7047 268.727 60.9277 270.684 68.3437 270.684C73.6997 270.684 76.5837 268.624 79.6737 262.341C83.2787 255.337 106.763 220.214 110.986 215.682C112.016 214.549 113.664 211.768 114.591 209.605C116.342 205.279 118.299 204.558 118.299 208.266C118.299 209.605 119.226 213.622 120.359 217.227C122.316 223.716 124.994 238.857 126.23 250.084C126.745 255.028 126.333 256.676 123.964 261.414C122.419 264.504 120.05 268.624 118.711 270.375C117.269 272.229 115.003 277.276 113.561 281.705C109.029 295.507 100.789 306.734 98.2137 302.614C97.9047 301.996 96.2567 301.584 94.6087 301.584C92.0337 301.584 91.2097 302.305 89.3557 305.91C86.4717 311.575 86.0597 319.815 88.7377 321.257C90.5917 322.39 91.2097 327.849 89.4587 328.879C88.9437 329.188 88.4287 332.896 88.4287 337.016C88.4287 343.299 88.9437 345.565 91.3127 350.097C93.6817 354.732 94.7117 355.659 97.2867 355.968C101.716 356.38 103.055 354.217 103.673 346.08C103.879 341.96 105.012 337.119 106.351 334.441C108.205 330.63 109.132 329.806 112.119 329.291C114.179 328.982 116.342 328.364 117.063 327.952C118.917 326.819 118.505 323.935 116.239 321.875C114.179 320.227 114.179 320.021 115.93 317.24C116.857 315.695 118.505 313.532 119.432 312.399C120.462 311.266 125.303 303.541 130.144 295.404C135.088 287.164 140.547 278.821 142.504 276.864C147.036 272.023 153.319 259.869 153.319 255.749C153.319 253.895 154.246 245.758 155.276 237.621C156.924 225.982 157.13 220.729 156.409 213.004C155.482 201.674 151.98 182.516 149.199 172.834C147.86 168.096 147.448 164.182 147.86 159.444C149.096 142.861 148.478 137.711 143.534 124.939C140.959 118.347 138.899 112.167 138.899 111.24C138.899 110.21 137.663 105.575 136.221 100.734C134.161 93.8328 133.543 90.0218 133.646 82.3998C133.749 77.1469 134.367 71.6878 134.985 70.2458C135.809 68.5978 138.59 66.4348 142.401 64.4778C145.8 62.7268 153.422 58.6068 159.19 55.2078C165.061 51.9118 171.55 48.5128 173.61 47.7918C175.773 47.0708 182.777 42.7448 189.163 38.3159C205.952 26.5739 214.604 21.7328 222.432 19.8788C226.449 18.8488 230.569 17.0978 232.114 15.6559C235.616 12.3598 235.513 10.8148 231.599 11.6389L228.612 12.2568L229.23 7.20984C229.745 2.26584 229.745 2.16284 226.449 0.926849C222.638 -0.309143 222.947 -0.309143 218.518 0.926849Z" stroke="#D29C00" stroke-opacity="0.4" stroke-width="6" mask="url(#path-1-inside-1)"/>
</svg>
