<svg width="149" height="149" viewBox="0 0 149 149" fill="none" xmlns="http://www.w3.org/2000/svg">
<path d="M4.65613 32.5937H144.343C146.914 32.5937 149 30.5075 149 27.9375C149 25.3672 146.913 23.2814 144.343 23.2814H4.65613C2.08616 23.2814 0 25.3672 0 27.9375C0 30.5079 2.08616 32.5937 4.65613 32.5937Z" fill="#E3E3E3"/>
<path d="M144.343 69.8439H4.65613C2.08578 69.8439 0 71.93 0 74.5C0 77.07 2.08616 79.1561 4.65613 79.1561H144.343C146.914 79.1561 149 77.07 149 74.5C149 71.93 146.914 69.8439 144.343 69.8439Z" fill="#E3E3E3"/>
<path d="M144.343 116.406H4.65613C2.08578 116.406 0 118.492 0 121.062C0 123.633 2.08616 125.719 4.65613 125.719H144.343C146.914 125.719 149 123.632 149 121.062C149 118.492 146.914 116.406 144.343 116.406Z" fill="#E3E3E3"/>
</svg>
