<svg width="285" height="324" viewBox="0 0 285 324" fill="none" xmlns="http://www.w3.org/2000/svg">
<path d="M175.084 2.18949C175.001 2.28421 174.907 2.78152 174.859 3.27883C174.788 4.21426 174.706 4.45108 174.126 5.24442C173.724 5.80094 173.724 5.94303 174.043 6.76005C174.209 7.17448 174.256 7.50604 174.209 7.76654C174.149 8.08624 174.185 8.1691 174.351 8.22831C174.788 8.35856 174.895 8.47698 175.037 8.92693C175.25 9.67291 175.593 10.2531 176.575 11.5911C177.592 12.9646 177.983 13.7225 177.876 14.0777C177.841 14.208 177.616 14.4685 177.379 14.6579C176.883 15.0723 176.847 15.4157 177.238 16.0551C177.758 16.8958 179.876 19.335 181.603 21.0757C183.757 23.2425 185.153 24.474 187.235 26.037C189.164 27.4697 193.553 31.7916 196.771 35.3912C200.853 39.9737 208.863 49.4463 209.964 50.9857C213.158 55.497 217.145 62.3529 217.796 64.4724C218.116 65.5026 218.116 65.9525 217.772 66.2722C217.205 66.8051 212.377 69.0193 210.532 69.5995C208.473 70.2389 208.059 70.3928 206.331 71.1743C204.024 72.2282 201.114 73.1873 197.718 74.0398C193.281 75.1529 189.625 75.7449 188.489 75.5318C187.555 75.366 186.655 74.4187 184.762 71.6243C181.982 67.5037 180.669 65.846 178.634 63.8685C177.013 62.2937 175.936 61.453 173.167 59.5585C170.612 57.8297 169.18 56.7285 168.742 56.1483L168.411 55.7102V51.8027C168.411 48.0373 168.399 47.8597 168.139 47.1848C167.796 46.2493 167.441 45.681 166.66 44.71C166.293 44.2719 165.725 43.4549 165.382 42.8865C164.566 41.5485 162.791 39.429 160.78 37.416C158.307 34.9295 157.384 34.3256 154.864 33.4967C151.977 32.5495 148.487 32.0403 144.689 32.0285C141.873 32.0166 140.938 32.1113 139.045 32.6086C136.336 33.3191 134.123 34.7637 132.561 36.8358C131.828 37.8068 131.615 38.6001 131.071 42.3181C130.42 46.7585 130.302 47.3979 129.97 48.1202C129.521 49.1148 128.74 50.2515 127.545 51.6724C126.941 52.3829 126.385 53.0933 126.326 53.2354C126.22 53.4486 126.303 53.6617 126.799 54.5379C127.746 56.172 127.923 57.581 128.077 64.1764L128.16 67.6813L129.237 68.593C130.775 69.8955 131.674 70.31 133.189 70.4402C134.443 70.5586 134.963 70.7362 135.271 71.1743C135.638 71.6835 135.413 72.9031 134.928 73.0926C134.171 73.3767 132.573 72.9978 129.604 71.8374C124.871 69.9902 123.049 69.4811 116.423 68.1312C114.045 67.6576 110.496 66.8879 108.543 66.4262C101.326 64.7448 99.3266 64.4369 98.0133 64.8158C95.9782 65.3842 95.8244 65.3723 93.5764 64.3422C90.2517 62.8147 81.3189 58.1731 79.1774 56.8587C74.1608 53.7683 66.9909 49.4464 64.944 48.2741C61.643 46.3914 59.5725 45.3257 49.4446 40.2934C36.8203 34.0059 30.2065 30.5247 27.0238 28.4407C25.6986 27.5763 25.2017 27.15 23.4743 25.3976C20.6584 22.5676 18.6352 20.1876 16.5528 17.2392C15.488 15.7354 14.0682 14.279 13.5358 14.1488C13.098 14.0422 12.8851 14.2553 12.8022 14.8829C12.7667 15.1552 12.6721 15.4276 12.5893 15.4986C12.1752 15.842 11.134 15.0486 9.868 13.4383C8.89781 12.2068 7.79747 11.1412 6.93377 10.5847C5.73878 9.82684 3.24232 8.74932 2.68623 8.74932C2.31945 8.74932 2 9.17561 2 9.66108C2 10.9281 5.01705 16.0433 6.75629 17.7365C7.62 18.5891 9.16994 20.6138 10.1283 22.1532C10.8619 23.3254 10.9565 23.5504 10.7317 23.5504C10.4951 23.5504 9.05162 22.8399 7.63183 22.0111C6.2712 21.2296 5.57314 20.898 4.99339 20.7796C4.25983 20.6139 3.89305 21.4546 4.29533 22.4018C4.72126 23.432 6.28303 24.8884 8.80316 26.629C10.5306 27.8131 11.4298 28.5354 12.8259 29.8379C14.6006 31.4956 15.8429 32.3718 17.949 33.4257C19.8065 34.3611 21.6877 34.9176 22.9774 34.9176C24.3144 34.9176 25.7696 35.4623 27.994 36.7648C29.8752 37.866 31.2122 38.8251 32.348 39.8908C33.6495 41.1104 34.5605 41.8564 37.2581 43.9167C41.0797 46.8295 42.4403 47.9663 49.5748 54.2656C54.1418 58.3033 56.5909 60.5176 59.1465 62.9213C62.6368 66.213 65.8669 68.4273 71.7472 71.6006C72.599 72.0506 76.3733 73.9688 80.1476 75.8515C87.424 79.4985 90.1334 80.9194 93.1268 82.7073C94.9489 83.7849 97.4927 85.1229 98.0724 85.3005C98.2381 85.3478 98.593 85.5491 98.8651 85.7267C99.8708 86.4254 100.368 88.0476 100.498 91.1262C100.616 93.8141 100.806 94.3587 101.74 94.8324C101.989 94.9626 103.16 95.2942 104.355 95.5902C107.041 96.2533 107.999 96.6914 109.028 97.7452C110.271 98.9885 110.815 100.386 111.146 103.062C111.525 106.188 111.608 109.681 111.608 123.073C111.62 139.816 111.643 139.425 110.259 146.34C109.809 148.59 109.336 151.195 109.194 152.142C109.064 153.089 108.875 154.285 108.78 154.806C108.543 156.144 108.39 157.613 108.188 160.608C108.082 162.041 107.893 164.161 107.762 165.333C107.573 167.002 107.55 167.618 107.644 168.293C107.928 170.33 108.792 171.774 109.928 172.13C110.531 172.331 112.471 172.508 114.01 172.508C116.482 172.52 118.719 172.71 119.298 172.958C119.937 173.243 120.032 173.491 120.197 175.291C120.623 179.85 120.647 198.582 120.245 218.037C120.008 229.854 120.103 235.762 120.623 241.896C120.836 244.489 121.132 246.976 122.031 253.678C122.386 256.413 122.883 260.083 123.108 261.848C123.546 265.187 124.35 270.136 125.167 274.435C125.427 275.808 125.746 277.703 125.877 278.638C126.374 282.167 127.391 286.37 128.255 288.525C128.728 289.709 129.284 290.514 130.278 291.45C131.792 292.883 133.816 294.043 138.181 295.985L140.844 297.169L146.937 297.074C159.537 296.897 162.756 297.216 173.487 299.691C180.846 301.384 183.449 302.071 184.455 302.58C185.188 302.959 185.555 303.409 186.395 304.948C186.928 305.931 187.33 306.476 187.992 307.151C189.093 308.276 189.696 308.524 191.66 308.702C192.406 308.761 193.246 308.903 193.53 308.998C194.63 309.377 195.801 310.336 200.889 315.001C206.781 320.401 208.106 321.502 209.479 322.141C210.117 322.449 210.295 322.473 211.537 322.473C212.803 322.473 212.933 322.449 213.442 322.153C214.471 321.549 215.631 320.01 216.199 318.471C216.731 317.073 216.897 315.901 216.826 314.184C216.708 311.496 216.01 309.128 214.353 305.836C212.768 302.675 211.537 301.183 206.308 296.068L203.515 293.344L203.48 288.312L203.433 283.28L205.267 282.77C208.118 281.977 211.017 281.018 212.283 280.45C214.33 279.526 215.595 278.65 218.246 276.329C222.529 272.564 225.664 270.48 231.355 267.591C236.904 264.784 240.797 263.221 245.245 262.025C247.115 261.528 250.274 260.51 252.415 259.716C255.503 258.58 257.633 258.189 258.059 258.674C258.165 258.805 258.272 259.255 258.319 259.823C258.438 261.421 258.84 261.836 259.964 261.504C260.579 261.327 261.029 261.078 262.863 259.894L263.833 259.266L265.051 259.894C268.376 261.623 269.831 262.499 271.464 263.778C272.375 264.5 273.594 265.104 274.6 265.353C275.676 265.613 277.226 265.542 278.315 265.175C280.575 264.405 281.84 262.973 282.55 260.368C282.799 259.468 282.822 259.112 282.822 256.993C282.811 254.992 282.775 254.435 282.55 253.417C281.58 248.977 279.474 245.401 276.599 243.293C275.369 242.393 274.493 241.86 272.056 240.534C270.884 239.895 269.666 239.208 269.335 238.995C268.4 238.403 267.512 237.337 266.732 235.869C264.543 231.796 263.833 230.73 262.52 229.617C260.816 228.184 257.692 227.225 255.208 227.367C252.463 227.521 249.765 228.989 248.771 230.848C248.156 231.997 247.955 233.098 247.955 235.206C247.955 236.248 248.038 237.775 248.144 238.604C248.475 241.233 248.393 241.718 247.446 242.594C245.92 244.004 243.494 244.465 238.217 244.347C236.597 244.311 233.958 244.157 232.361 244.015C228.918 243.707 223.475 243.636 221.535 243.897C216.826 244.501 213.833 245.673 211.301 247.875C208.911 249.959 207.716 250.54 206.923 249.983C206.757 249.865 206.532 249.663 206.426 249.533C206.083 249.142 205.077 247.118 204.699 246.04C204.273 244.856 201.717 235.81 201.374 234.258C200.794 231.618 200.51 228.8 200.001 220.642C199.28 208.907 198.558 202.336 197.162 194.674C196.369 190.353 196.026 189.086 195.091 187.132C194.784 186.481 194.299 185.308 194.027 184.527C193.352 182.632 192.678 181.129 191.459 178.784C190.891 177.707 190.027 176.025 189.531 175.054C188.572 173.171 186.017 168.707 185.141 167.405C184.857 166.979 184.325 166.174 183.958 165.629C182.396 163.32 180.539 159.483 180.539 158.584C180.539 158.039 180.964 157.293 181.663 156.642C182.443 155.908 182.479 155.754 182.526 153.385C182.585 150.899 182.408 148.412 182.041 146.34C181.568 143.617 181.663 142.125 182.881 133.138C183.544 128.2 183.556 128.141 183.556 125.204C183.556 122.954 183.508 121.936 183.343 120.941C183.035 118.964 182.905 116.975 183.023 115.933C183.153 114.761 183.473 113.896 184.147 112.937C186.312 109.811 186.691 109.184 188.063 106.377C189.318 103.82 189.59 103.334 190.087 102.872C190.773 102.221 192.133 101.416 195.151 99.8647C199.008 97.8636 201.599 96.3835 201.954 95.9573C202.261 95.5902 204.746 94.193 208.934 92.0498C215.051 88.9119 217.678 87.4674 220.233 85.8096C220.695 85.5136 221.488 85.0518 222.008 84.7795C223.558 83.9743 227.285 81.2035 230.054 78.7998C231.58 77.4737 234.715 74.3714 236.005 72.9386C238.087 70.5941 239.673 68.1904 239.886 67.0537C239.992 66.4735 239.696 65.7631 238.785 64.425C234.905 58.6822 222.209 45.4915 212.306 36.895C211.336 36.0425 209.124 34.219 207.396 32.8455C202.06 28.5709 201.693 28.1802 200.333 25.5041C199.232 23.3254 198.83 22.686 197.955 21.7269C197.588 21.3125 197.15 20.7559 196.984 20.4718C196.819 20.1994 196.002 19.3232 195.151 18.5417C192.382 15.9604 189.72 13.2133 188.809 11.9937C188.324 11.3306 187.495 10.0873 186.975 9.22296C186.005 7.58892 184.975 6.38113 184.549 6.38113C184.384 6.38113 184.254 6.53507 184.088 6.91398C183.958 7.22184 183.733 7.50604 183.579 7.57708C183.165 7.76654 182.526 7.43497 181.923 6.70084C179.734 4.04849 177.036 2.00003 175.759 2.00003C175.439 2.00003 175.191 2.07108 175.084 2.18949ZM164.175 68.2615C164.448 68.5338 164.471 68.6285 164.412 69.1969C164.341 69.8837 163.785 71.1862 163.087 72.2874C161.951 74.0753 161.336 74.0872 161.17 72.3229C161.087 71.5059 161.3 70.2034 161.62 69.5995C162.046 68.7588 163.016 67.9773 163.655 67.9536C163.773 67.9536 164.01 68.0957 164.175 68.2615ZM160.673 215.633C161.229 216.154 162.058 217.575 163.667 220.807C165.299 224.064 166.139 225.958 167.11 228.528C167.512 229.605 168.447 231.973 169.18 233.797C171.594 239.788 173.522 245.069 173.996 246.928C174.362 248.396 175.924 252.612 178.586 259.302C180.917 265.163 181.686 266.916 183.047 269.426C185.058 273.132 186.726 275.63 188.383 277.395C189.613 278.697 189.838 279.064 189.649 279.431C189.59 279.55 189.01 279.917 188.359 280.248C186.809 281.042 186.028 281.764 185.401 282.984C185.129 283.505 184.869 283.931 184.822 283.931C184.538 283.931 179.071 281.776 178.113 281.29C177.462 280.959 175.628 279.81 174.031 278.733C167.169 274.127 166.092 273.416 164.862 272.729C161.821 271.036 159.597 270.432 156.367 270.432H155.077L155.136 266.726C155.172 264.701 155.254 262.783 155.314 262.487C155.586 261.279 156.331 254.743 157.349 244.619C157.822 239.93 158.035 237.977 158.52 234.14C158.768 232.127 158.934 229.581 159.123 224.49C159.194 222.761 159.301 220.393 159.372 219.221C159.608 215.171 159.75 214.78 160.673 215.633Z" stroke="#D29C00" stroke-opacity="0.4" stroke-width="3"/>
</svg>
