<svg width="497" height="569" viewBox="0 0 497 569" fill="none" xmlns="http://www.w3.org/2000/svg">
<path d="M306.131 2.6344C305.985 2.80188 305.817 3.68111 305.733 4.56036C305.608 6.2142 305.461 6.6329 304.436 8.03552C303.725 9.01945 303.725 9.27066 304.29 10.7151C304.582 11.4479 304.666 12.0341 304.582 12.4946C304.478 13.0599 304.541 13.2064 304.834 13.311C305.608 13.5413 305.796 13.7507 306.047 14.5462C306.424 15.8651 307.031 16.8909 308.768 19.2565C310.567 21.6849 311.258 23.0247 311.07 23.6528C311.007 23.8831 310.609 24.3436 310.191 24.6786C309.312 25.4113 309.249 26.0184 309.94 27.1489C310.86 28.6352 314.606 32.9478 317.661 36.0251C321.47 39.8562 323.939 42.0334 327.622 44.7968C331.033 47.3298 338.797 54.971 344.489 61.3351C351.709 69.4368 365.876 86.1845 367.822 88.906C373.472 96.8821 380.524 109.003 381.675 112.751C382.24 114.572 382.24 115.367 381.633 115.933C380.629 116.875 372.091 120.79 368.826 121.815C365.185 122.946 364.453 123.218 361.397 124.6C357.317 126.463 352.169 128.159 346.163 129.666C338.316 131.634 331.849 132.68 329.841 132.304C328.187 132.01 326.597 130.336 323.249 125.395C318.331 118.11 316.008 115.179 312.409 111.683C309.542 108.899 307.638 107.412 302.741 104.063C298.221 101.006 295.689 99.0594 294.915 98.0336L294.329 97.259V90.3506C294.329 83.6933 294.308 83.3793 293.847 82.186C293.24 80.5322 292.613 79.5273 291.232 77.8107C290.583 77.0361 289.578 75.5916 288.971 74.5868C287.528 72.2211 284.389 68.4738 280.831 64.9149C276.458 60.5187 274.825 59.451 270.368 57.9856C265.262 56.3108 259.089 55.4106 252.371 55.3897C247.391 55.3688 245.738 55.5362 242.389 56.4155C237.597 57.6715 233.684 60.2256 230.922 63.8892C229.624 65.6058 229.248 67.0084 228.285 73.5819C227.134 81.4324 226.925 82.5629 226.339 83.8399C225.544 85.5984 224.163 87.6081 222.049 90.1203C220.982 91.3763 219.998 92.6324 219.894 92.8836C219.705 93.2605 219.852 93.6373 220.731 95.1864C222.405 98.0754 222.719 100.567 222.991 112.227L223.137 118.424L225.042 120.036C227.762 122.339 229.352 123.071 232.031 123.302C234.249 123.511 235.17 123.825 235.714 124.6C236.363 125.5 235.965 127.656 235.107 127.991C233.768 128.493 230.943 127.824 225.69 125.772C217.32 122.506 214.097 121.606 202.378 119.219C198.172 118.382 191.894 117.021 188.441 116.205C175.676 113.232 172.14 112.688 169.817 113.358C166.218 114.363 165.946 114.342 161.97 112.52C156.089 109.82 140.29 101.613 136.502 99.2896C127.63 93.8257 114.948 86.1846 111.328 84.112C105.49 80.7834 101.827 78.8993 83.9145 70.0021C61.5861 58.8858 49.8883 52.731 44.2592 49.0465C41.9154 47.5183 41.0365 46.7646 37.9813 43.6663C33.0008 38.6629 29.4224 34.455 25.7394 29.2423C23.856 26.5836 21.3448 24.0087 20.4032 23.7784C19.6289 23.59 19.2522 23.9668 19.1057 25.0764C19.0429 25.5579 18.8755 26.0393 18.729 26.1649C17.9966 26.772 16.1551 25.3694 13.916 22.5223C12.2 20.3451 10.2539 18.461 8.72627 17.4771C6.61272 16.1372 2.19726 14.2322 1.21373 14.2322C0.56501 14.2322 0 14.9859 0 15.8442C0 18.0842 5.33621 27.1279 8.41238 30.1216C9.94 31.6289 12.6813 35.2087 14.3764 37.9302C15.6738 40.0027 15.8412 40.4005 15.4436 40.4005C15.0251 40.4005 12.4721 39.1444 9.96093 37.679C7.5544 36.2973 6.31975 35.7111 5.29436 35.5018C3.99693 35.2087 3.34821 36.695 4.0597 38.3698C4.81305 40.1911 7.57533 42.7661 12.0326 45.8435C15.0879 47.937 16.6783 49.214 19.1476 51.5168C22.2865 54.4476 24.4838 55.9968 28.2087 57.86C31.4941 59.5138 34.8214 60.4977 37.1024 60.4977C39.467 60.4977 42.041 61.4607 45.9751 63.7635C49.3024 65.7105 51.6671 67.4062 53.676 69.2903C55.9779 71.4466 57.5892 72.7655 62.3604 76.4081C69.1196 81.558 71.5261 83.5677 84.1447 94.705C92.2223 101.844 96.554 105.758 101.074 110.008C107.247 115.828 112.96 119.743 123.361 125.353C124.867 126.149 131.543 129.54 138.218 132.869C151.088 139.317 155.88 141.829 161.174 144.99C164.397 146.895 168.896 149.261 169.922 149.575C170.215 149.658 170.842 150.014 171.324 150.328C173.102 151.563 173.981 154.431 174.212 159.874C174.421 164.627 174.756 165.59 176.409 166.427C176.848 166.657 178.92 167.243 181.034 167.767C185.784 168.939 187.479 169.714 189.299 171.577C191.497 173.775 192.459 176.245 193.045 180.977C193.715 186.503 193.861 192.679 193.861 216.356C193.882 245.958 193.924 245.267 191.476 257.493C190.681 261.47 189.844 266.076 189.592 267.751C189.362 269.425 189.027 271.54 188.86 272.461C188.441 274.827 188.169 277.422 187.814 282.719C187.625 285.252 187.291 288.999 187.06 291.072C186.725 294.024 186.684 295.112 186.851 296.306C187.353 299.906 188.881 302.46 190.89 303.088C191.957 303.444 195.389 303.758 198.109 303.758C202.483 303.779 206.438 304.114 207.463 304.554C208.593 305.056 208.761 305.496 209.054 308.678C209.807 316.738 209.849 349.856 209.138 384.252C208.719 405.145 208.886 415.591 209.807 426.435C210.184 431.02 210.707 435.416 212.297 447.265C212.925 452.101 213.804 458.591 214.202 461.71C214.976 467.614 216.399 476.364 217.843 483.964C218.303 486.392 218.868 489.742 219.098 491.395C219.977 497.634 221.777 505.066 223.305 508.876C224.142 510.969 225.125 512.393 226.883 514.047C229.562 516.58 233.14 518.631 240.862 522.065L245.57 524.158L256.347 523.991C278.634 523.677 284.326 524.242 303.306 528.617C316.322 531.611 320.926 532.825 322.705 533.725C324.002 534.395 324.651 535.191 326.137 537.912C327.078 539.65 327.79 540.613 328.962 541.806C330.908 543.795 331.975 544.234 335.449 544.549C336.767 544.653 338.253 544.904 338.755 545.072C340.701 545.742 342.773 547.438 351.771 555.686C362.193 565.232 364.536 567.179 366.964 568.309C368.094 568.854 368.408 568.896 370.605 568.896C372.844 568.896 373.074 568.854 373.974 568.33C375.795 567.263 377.846 564.541 378.85 561.82C379.792 559.349 380.085 557.277 379.959 554.241C379.75 549.489 378.515 545.302 375.585 539.482C372.781 533.893 370.605 531.255 361.356 522.211L356.417 517.396L356.354 508.499L356.27 499.602L359.514 498.702C364.557 497.299 369.684 495.603 371.923 494.598C375.544 492.966 377.783 491.416 382.47 487.313C390.046 480.656 395.591 476.971 405.657 471.863C415.471 466.902 422.356 464.139 430.224 462.024C433.53 461.145 439.118 459.345 442.905 457.942C448.367 455.932 452.134 455.241 452.887 456.1C453.076 456.33 453.264 457.125 453.348 458.13C453.557 460.956 454.268 461.689 456.256 461.103C457.345 460.789 458.14 460.349 461.383 458.256L463.099 457.146L465.255 458.256C471.135 461.312 473.709 462.862 476.597 465.122C478.208 466.4 480.364 467.467 482.142 467.907C484.047 468.367 486.788 468.242 488.713 467.593C492.71 466.232 494.949 463.699 496.205 459.093C496.644 457.502 496.686 456.874 496.686 453.127C496.665 449.589 496.602 448.605 496.205 446.805C494.489 438.954 490.764 432.632 485.679 428.906C483.502 427.315 481.954 426.372 477.643 424.028C475.571 422.897 473.416 421.683 472.83 421.306C471.177 420.26 469.607 418.375 468.226 415.78C464.355 408.578 463.099 406.694 460.776 404.726C457.763 402.193 452.239 400.497 447.844 400.748C442.989 401.021 438.218 403.617 436.46 406.903C435.372 408.934 435.016 410.881 435.016 414.607C435.016 416.449 435.163 419.15 435.351 420.615C435.937 425.263 435.79 426.121 434.116 427.67C431.417 430.162 427.127 430.978 417.794 430.769C414.927 430.706 410.26 430.434 407.435 430.183C401.346 429.638 391.72 429.513 388.288 429.973C379.959 431.041 374.665 433.113 370.186 437.007C365.959 440.692 363.846 441.718 362.444 440.734C362.151 440.524 361.753 440.168 361.565 439.938C360.958 439.247 359.179 435.667 358.51 433.762C357.756 431.669 353.236 415.675 352.629 412.932C351.604 408.264 351.102 403.282 350.202 388.858C348.925 368.111 347.649 356.493 345.18 342.948C343.777 335.307 343.171 333.067 341.517 329.613C340.973 328.461 340.115 326.389 339.634 325.007C338.441 321.657 337.248 318.999 335.093 314.854C334.089 312.949 332.561 309.976 331.682 308.259C329.987 304.931 325.467 297.038 323.918 294.735C323.416 293.982 322.474 292.558 321.826 291.595C319.064 287.513 315.778 280.73 315.778 279.139C315.778 278.176 316.531 276.857 317.766 275.706C319.147 274.408 319.21 274.136 319.294 269.949C319.398 265.553 319.084 261.156 318.436 257.493C317.599 252.678 317.766 250.04 319.921 234.151C321.093 225.421 321.114 225.316 321.114 220.124C321.114 216.147 321.031 214.346 320.738 212.588C320.194 209.092 319.963 205.575 320.173 203.733C320.403 201.66 320.968 200.132 322.161 198.436C325.99 192.909 326.66 191.8 329.087 186.838C331.305 182.316 331.787 181.458 332.666 180.642C333.879 179.49 336.286 178.067 341.622 175.324C348.444 171.786 353.027 169.169 353.655 168.416C354.199 167.767 358.593 165.297 366.001 161.507C376.82 155.96 381.466 153.406 385.986 150.475C386.802 149.951 388.204 149.135 389.125 148.654C391.866 147.23 398.458 142.331 403.355 138.082C406.054 135.737 411.6 130.252 413.881 127.719C417.564 123.574 420.368 119.324 420.744 117.314C420.933 116.289 420.41 115.032 418.798 112.667C411.934 102.514 389.481 79.1924 371.965 63.9938C370.249 62.4865 366.336 59.2626 363.281 56.8342C353.843 49.2768 353.194 48.5859 350.788 43.8547C348.842 40.0027 348.13 38.8723 346.582 37.1766C345.933 36.4439 345.159 35.4599 344.866 34.9575C344.573 34.476 343.129 32.9268 341.622 31.5451C336.725 26.9814 332.017 22.1245 330.406 19.9683C329.548 18.7959 328.083 16.5978 327.162 15.0696C325.446 12.1806 323.625 10.0452 322.872 10.0452C322.579 10.0452 322.349 10.3174 322.056 10.9873C321.826 11.5316 321.428 12.0341 321.156 12.1597C320.424 12.4946 319.294 11.9084 318.226 10.6105C314.355 5.92111 309.584 2.29944 307.324 2.29944C306.759 2.29944 306.319 2.42505 306.131 2.6344ZM286.837 119.45C287.318 119.931 287.36 120.099 287.255 121.104C287.13 122.318 286.146 124.621 284.912 126.567C282.903 129.729 281.815 129.75 281.522 126.63C281.375 125.186 281.752 122.883 282.317 121.815C283.07 120.329 284.786 118.947 285.916 118.905C286.125 118.905 286.544 119.157 286.837 119.45ZM280.643 380.002C281.626 380.923 283.091 383.436 285.937 389.151C288.825 394.908 290.311 398.257 292.027 402.8C292.738 404.705 294.391 408.892 295.689 412.116C299.958 422.709 303.369 432.046 304.206 435.332C304.855 437.928 307.617 445.381 312.325 457.209C316.448 467.572 317.808 470.67 320.214 475.108C323.772 481.661 326.723 486.078 329.652 489.197C331.829 491.5 332.226 492.149 331.891 492.798C331.787 493.007 330.761 493.656 329.61 494.243C326.869 495.645 325.488 496.922 324.379 499.078C323.897 500 323.437 500.753 323.353 500.753C322.851 500.753 313.183 496.943 311.488 496.085C310.337 495.499 307.094 493.468 304.269 491.563C292.131 483.419 290.227 482.163 288.051 480.949C282.673 477.955 278.738 476.888 273.026 476.888H270.745L270.849 470.335C270.912 466.755 271.059 463.364 271.163 462.841C271.644 460.705 272.963 449.149 274.762 431.25C275.6 422.96 275.976 419.506 276.834 412.723C277.274 409.164 277.567 404.663 277.901 395.661C278.027 392.605 278.215 388.418 278.341 386.345C278.759 379.186 279.011 378.495 280.643 380.002Z" stroke="#D29C00" stroke-width="3"/>
</svg>
